  0
SECTION
  2
BLOCKS
  0
ENDSEC
  0
SECTION
  2
ENTITIES
  0
LINE
  8
0
 10
86.6708
 20
0.0184937
 11
87.1386
 21
0.0738678
  0
LINE
  8
0
 10
87.1386
 20
0.0738678
 11
87.6007
 21
0.165771
  0
LINE
  8
0
 10
87.6007
 20
0.165771
 11
88.0541
 21
0.293655
  0
LINE
  8
0
 10
88.0541
 20
0.293655
 11
88.4961
 21
0.456711
  0
LINE
  8
0
 10
88.4961
 20
0.456711
 11
88.924
 21
0.653946
  0
LINE
  8
0
 10
88.924
 20
0.653946
 11
89.335
 21
0.884155
  0
LINE
  8
0
 10
89.335
 20
0.884155
 11
89.7267
 21
1.14589
  0
LINE
  8
0
 10
89.7267
 20
1.14589
 11
90.0967
 21
1.43756
  0
LINE
  8
0
 10
90.0967
 20
1.43756
 11
90.4426
 21
1.75735
  0
LINE
  8
0
 10
90.4426
 20
1.75735
 11
90.7624
 21
2.1033
  0
LINE
  8
0
 10
90.7624
 20
2.1033
 11
91.0541
 21
2.47328
  0
LINE
  8
0
 10
91.0541
 20
2.47328
 11
91.3158
 21
2.86501
  0
LINE
  8
0
 10
91.3158
 20
2.86501
 11
91.5461
 21
3.27605
  0
LINE
  8
0
 10
91.5461
 20
3.27605
 11
91.7433
 21
3.70389
  0
LINE
  8
0
 10
91.7433
 20
3.70389
 11
91.9063
 21
4.14589
  0
LINE
  8
0
 10
91.9063
 20
4.14589
 11
92.0342
 21
4.59932
  0
LINE
  8
0
 10
92.0342
 20
4.59932
 11
92.1261
 21
5.06139
  0
LINE
  8
0
 10
92.1261
 20
5.06139
 11
92.1815
 21
5.52924
  0
LINE
  8
0
 10
92.1815
 20
5.52924
 11
92.2
 21
6
  0
LINE
  8
0
 10
92.2
 20
6
 11
92.2
 21
105.25
  0
LINE
  8
0
 10
92.2
 20
105.25
 11
92.1815
 21
105.721
  0
LINE
  8
0
 10
92.1815
 20
105.721
 11
92.1261
 21
106.189
  0
LINE
  8
0
 10
92.1261
 20
106.189
 11
92.0342
 21
106.651
  0
LINE
  8
0
 10
92.0342
 20
106.651
 11
91.9064
 21
107.104
  0
LINE
  8
0
 10
91.9064
 20
107.104
 11
91.7433
 21
107.546
  0
LINE
  8
0
 10
91.7433
 20
107.546
 11
91.5461
 21
107.974
  0
LINE
  8
0
 10
91.5461
 20
107.974
 11
91.3159
 21
108.385
  0
LINE
  8
0
 10
91.3159
 20
108.385
 11
91.0541
 21
108.777
  0
LINE
  8
0
 10
91.0541
 20
108.777
 11
90.7625
 21
109.147
  0
LINE
  8
0
 10
90.7625
 20
109.147
 11
90.4427
 21
109.493
  0
LINE
  8
0
 10
90.4427
 20
109.493
 11
90.0967
 21
109.812
  0
LINE
  8
0
 10
90.0967
 20
109.812
 11
89.7267
 21
110.104
  0
LINE
  8
0
 10
89.7267
 20
110.104
 11
89.335
 21
110.366
  0
LINE
  8
0
 10
89.335
 20
110.366
 11
88.924
 21
110.596
  0
LINE
  8
0
 10
88.924
 20
110.596
 11
88.4961
 21
110.793
  0
LINE
  8
0
 10
88.4961
 20
110.793
 11
88.0541
 21
110.956
  0
LINE
  8
0
 10
88.0541
 20
110.956
 11
87.6007
 21
111.084
  0
LINE
  8
0
 10
87.6007
 20
111.084
 11
87.1386
 21
111.176
  0
LINE
  8
0
 10
87.1386
 20
111.176
 11
86.6708
 21
111.232
  0
LINE
  8
0
 10
86.6708
 20
111.232
 11
86.2
 21
111.25
  0
LINE
  8
0
 10
86.2
 20
111.25
 11
5.99998
 21
111.25
  0
LINE
  8
0
 10
5.99998
 20
111.25
 11
5.52924
 21
111.232
  0
LINE
  8
0
 10
5.52924
 20
111.232
 11
5.06139
 21
111.176
  0
LINE
  8
0
 10
5.06139
 20
111.176
 11
4.59932
 21
111.084
  0
LINE
  8
0
 10
4.59932
 20
111.084
 11
4.14589
 21
110.956
  0
LINE
  8
0
 10
4.14589
 20
110.956
 11
3.70389
 21
110.793
  0
LINE
  8
0
 10
3.70389
 20
110.793
 11
3.27605
 21
110.596
  0
LINE
  8
0
 10
3.27605
 20
110.596
 11
2.86501
 21
110.366
  0
LINE
  8
0
 10
2.86501
 20
110.366
 11
2.47328
 21
110.104
  0
LINE
  8
0
 10
2.47328
 20
110.104
 11
2.1033
 21
109.812
  0
LINE
  8
0
 10
2.1033
 20
109.812
 11
1.75735
 21
109.493
  0
LINE
  8
0
 10
1.75735
 20
109.493
 11
1.43756
 21
109.147
  0
LINE
  8
0
 10
1.43756
 20
109.147
 11
1.14589
 21
108.777
  0
LINE
  8
0
 10
1.14589
 20
108.777
 11
0.884155
 21
108.385
  0
LINE
  8
0
 10
0.884155
 20
108.385
 11
0.653946
 21
107.974
  0
LINE
  8
0
 10
0.653946
 20
107.974
 11
0.456711
 21
107.546
  0
LINE
  8
0
 10
0.456711
 20
107.546
 11
0.293655
 21
107.104
  0
LINE
  8
0
 10
0.293655
 20
107.104
 11
0.165771
 21
106.651
  0
LINE
  8
0
 10
0.165771
 20
106.651
 11
0.0738678
 21
106.189
  0
LINE
  8
0
 10
0.0738678
 20
106.189
 11
0.0184937
 21
105.721
  0
LINE
  8
0
 10
0.0184937
 20
105.721
 11
0
 21
105.25
  0
LINE
  8
0
 10
0
 20
105.25
 11
0
 21
6
  0
LINE
  8
0
 10
0
 20
6
 11
0.0184937
 21
5.52924
  0
LINE
  8
0
 10
0.0184937
 20
5.52924
 11
0.0738678
 21
5.06139
  0
LINE
  8
0
 10
0.0738678
 20
5.06139
 11
0.165771
 21
4.59932
  0
LINE
  8
0
 10
0.165771
 20
4.59932
 11
0.293655
 21
4.14589
  0
LINE
  8
0
 10
0.293655
 20
4.14589
 11
0.456711
 21
3.70389
  0
LINE
  8
0
 10
0.456711
 20
3.70389
 11
0.653946
 21
3.27605
  0
LINE
  8
0
 10
0.653946
 20
3.27605
 11
0.884155
 21
2.86501
  0
LINE
  8
0
 10
0.884155
 20
2.86501
 11
1.14589
 21
2.47328
  0
LINE
  8
0
 10
1.14589
 20
2.47328
 11
1.43756
 21
2.1033
  0
LINE
  8
0
 10
1.43756
 20
2.1033
 11
1.75735
 21
1.75735
  0
LINE
  8
0
 10
1.75735
 20
1.75735
 11
2.1033
 21
1.43756
  0
LINE
  8
0
 10
2.1033
 20
1.43756
 11
2.47328
 21
1.14589
  0
LINE
  8
0
 10
2.47328
 20
1.14589
 11
2.86501
 21
0.884155
  0
LINE
  8
0
 10
2.86501
 20
0.884155
 11
3.27605
 21
0.653946
  0
LINE
  8
0
 10
3.27605
 20
0.653946
 11
3.70389
 21
0.456711
  0
LINE
  8
0
 10
3.70389
 20
0.456711
 11
4.14589
 21
0.293655
  0
LINE
  8
0
 10
4.14589
 20
0.293655
 11
4.59932
 21
0.165771
  0
LINE
  8
0
 10
4.59932
 20
0.165771
 11
5.06139
 21
0.0738678
  0
LINE
  8
0
 10
5.06139
 20
0.0738678
 11
5.52924
 21
0.0184937
  0
LINE
  8
0
 10
5.52924
 20
0.0184937
 11
5.99998
 21
0
  0
LINE
  8
0
 10
5.99998
 20
0
 11
86.2
 21
0
  0
LINE
  8
0
 10
86.2
 20
0
 11
86.6708
 21
0.0184937
  0
LINE
  8
0
 10
29.575
 20
86.725
 11
29.575
 21
100.725
  0
LINE
  8
0
 10
29.575
 20
100.725
 11
43.575
 21
100.725
  0
LINE
  8
0
 10
43.575
 20
100.725
 11
43.575
 21
86.725
  0
LINE
  8
0
 10
43.575
 20
86.725
 11
29.575
 21
86.725
  0
LINE
  8
0
 10
10.525
 20
86.725
 11
10.525
 21
100.725
  0
LINE
  8
0
 10
10.525
 20
100.725
 11
24.525
 21
100.725
  0
LINE
  8
0
 10
24.525
 20
100.725
 11
24.525
 21
86.725
  0
LINE
  8
0
 10
24.525
 20
86.725
 11
10.525
 21
86.725
  0
LINE
  8
0
 10
48.625
 20
86.725
 11
48.625
 21
100.725
  0
LINE
  8
0
 10
48.625
 20
100.725
 11
62.625
 21
100.725
  0
LINE
  8
0
 10
62.625
 20
100.725
 11
62.625
 21
86.725
  0
LINE
  8
0
 10
62.625
 20
86.725
 11
48.625
 21
86.725
  0
LINE
  8
0
 10
67.675
 20
86.725
 11
67.675
 21
100.725
  0
LINE
  8
0
 10
67.675
 20
100.725
 11
81.675
 21
100.725
  0
LINE
  8
0
 10
81.675
 20
100.725
 11
81.675
 21
86.725
  0
LINE
  8
0
 10
81.675
 20
86.725
 11
67.675
 21
86.725
  0
LINE
  8
0
 10
10.525
 20
67.675
 11
10.525
 21
81.675
  0
LINE
  8
0
 10
10.525
 20
81.675
 11
24.525
 21
81.675
  0
LINE
  8
0
 10
24.525
 20
81.675
 11
24.525
 21
67.675
  0
LINE
  8
0
 10
24.525
 20
67.675
 11
10.525
 21
67.675
  0
LINE
  8
0
 10
29.575
 20
67.675
 11
29.575
 21
81.675
  0
LINE
  8
0
 10
29.575
 20
81.675
 11
43.575
 21
81.675
  0
LINE
  8
0
 10
43.575
 20
81.675
 11
43.575
 21
67.675
  0
LINE
  8
0
 10
43.575
 20
67.675
 11
29.575
 21
67.675
  0
LINE
  8
0
 10
48.625
 20
67.675
 11
48.625
 21
81.675
  0
LINE
  8
0
 10
48.625
 20
81.675
 11
62.625
 21
81.675
  0
LINE
  8
0
 10
62.625
 20
81.675
 11
62.625
 21
67.675
  0
LINE
  8
0
 10
62.625
 20
67.675
 11
48.625
 21
67.675
  0
LINE
  8
0
 10
66.925
 20
75.45
 11
66.925
 21
78.75
  0
LINE
  8
0
 10
66.925
 20
78.75
 11
80.925
 21
78.75
  0
LINE
  8
0
 10
80.925
 20
78.75
 11
80.925
 21
75.45
  0
LINE
  8
0
 10
80.925
 20
75.45
 11
66.925
 21
75.45
  0
LINE
  8
0
 10
67.675
 20
58.15
 11
67.675
 21
72.15
  0
LINE
  8
0
 10
67.675
 20
72.15
 11
81.675
 21
72.15
  0
LINE
  8
0
 10
81.675
 20
72.15
 11
81.675
 21
58.15
  0
LINE
  8
0
 10
81.675
 20
58.15
 11
67.675
 21
58.15
  0
LINE
  8
0
 10
10.525
 20
48.625
 11
10.525
 21
62.625
  0
LINE
  8
0
 10
10.525
 20
62.625
 11
24.525
 21
62.625
  0
LINE
  8
0
 10
24.525
 20
62.625
 11
24.525
 21
48.625
  0
LINE
  8
0
 10
24.525
 20
48.625
 11
10.525
 21
48.625
  0
LINE
  8
0
 10
29.575
 20
48.625
 11
29.575
 21
62.625
  0
LINE
  8
0
 10
29.575
 20
62.625
 11
43.575
 21
62.625
  0
LINE
  8
0
 10
43.575
 20
62.625
 11
43.575
 21
48.625
  0
LINE
  8
0
 10
43.575
 20
48.625
 11
29.575
 21
48.625
  0
LINE
  8
0
 10
48.625
 20
48.625
 11
48.625
 21
62.625
  0
LINE
  8
0
 10
48.625
 20
62.625
 11
62.625
 21
62.625
  0
LINE
  8
0
 10
62.625
 20
62.625
 11
62.625
 21
48.625
  0
LINE
  8
0
 10
62.625
 20
48.625
 11
48.625
 21
48.625
  0
LINE
  8
0
 10
66.925
 20
51.55
 11
66.925
 21
54.85
  0
LINE
  8
0
 10
66.925
 20
54.85
 11
80.925
 21
54.85
  0
LINE
  8
0
 10
80.925
 20
54.85
 11
80.925
 21
51.55
  0
LINE
  8
0
 10
80.925
 20
51.55
 11
66.925
 21
51.55
  0
LINE
  8
0
 10
10.525
 20
29.575
 11
10.525
 21
43.575
  0
LINE
  8
0
 10
10.525
 20
43.575
 11
24.525
 21
43.575
  0
LINE
  8
0
 10
24.525
 20
43.575
 11
24.525
 21
29.575
  0
LINE
  8
0
 10
24.525
 20
29.575
 11
10.525
 21
29.575
  0
LINE
  8
0
 10
29.575
 20
29.575
 11
29.575
 21
43.575
  0
LINE
  8
0
 10
29.575
 20
43.575
 11
43.575
 21
43.575
  0
LINE
  8
0
 10
43.575
 20
43.575
 11
43.575
 21
29.575
  0
LINE
  8
0
 10
43.575
 20
29.575
 11
29.575
 21
29.575
  0
LINE
  8
0
 10
48.625
 20
29.575
 11
48.625
 21
43.575
  0
LINE
  8
0
 10
48.625
 20
43.575
 11
62.625
 21
43.575
  0
LINE
  8
0
 10
62.625
 20
43.575
 11
62.625
 21
29.575
  0
LINE
  8
0
 10
62.625
 20
29.575
 11
48.625
 21
29.575
  0
LINE
  8
0
 10
66.925
 20
37.35
 11
66.925
 21
40.65
  0
LINE
  8
0
 10
66.925
 20
40.65
 11
80.925
 21
40.65
  0
LINE
  8
0
 10
80.925
 20
40.65
 11
80.925
 21
37.35
  0
LINE
  8
0
 10
80.925
 20
37.35
 11
66.925
 21
37.35
  0
LINE
  8
0
 10
67.675
 20
20.05
 11
67.675
 21
34.05
  0
LINE
  8
0
 10
67.675
 20
34.05
 11
81.675
 21
34.05
  0
LINE
  8
0
 10
81.675
 20
34.05
 11
81.675
 21
20.05
  0
LINE
  8
0
 10
81.675
 20
20.05
 11
67.675
 21
20.05
  0
LINE
  8
0
 10
48.625
 20
10.525
 11
48.625
 21
24.525
  0
LINE
  8
0
 10
48.625
 20
24.525
 11
62.625
 21
24.525
  0
LINE
  8
0
 10
62.625
 20
24.525
 11
62.625
 21
10.525
  0
LINE
  8
0
 10
62.625
 20
10.525
 11
48.625
 21
10.525
  0
LINE
  8
0
 10
10.525
 20
10.525
 11
10.525
 21
24.525
  0
LINE
  8
0
 10
10.525
 20
24.525
 11
24.525
 21
24.525
  0
LINE
  8
0
 10
24.525
 20
24.525
 11
24.525
 21
10.525
  0
LINE
  8
0
 10
24.525
 20
10.525
 11
10.525
 21
10.525
  0
LINE
  8
0
 10
29.575
 20
10.525
 11
29.575
 21
24.525
  0
LINE
  8
0
 10
29.575
 20
24.525
 11
43.575
 21
24.525
  0
LINE
  8
0
 10
43.575
 20
24.525
 11
43.575
 21
10.525
  0
LINE
  8
0
 10
43.575
 20
10.525
 11
29.575
 21
10.525
  0
LINE
  8
0
 10
66.925
 20
13.45
 11
66.925
 21
16.75
  0
LINE
  8
0
 10
66.925
 20
16.75
 11
80.925
 21
16.75
  0
LINE
  8
0
 10
80.925
 20
16.75
 11
80.925
 21
13.45
  0
LINE
  8
0
 10
80.925
 20
13.45
 11
66.925
 21
13.45
  0
ENDSEC
  0
SECTION
  2
OBJECTS
  0
DICTIONARY
  0
ENDSEC
  0
EOF
