  0
SECTION
  2
BLOCKS
  0
ENDSEC
  0
SECTION
  2
ENTITIES
  0
LINE
  8
0
 10
94.6708
 20
0.0184937
 11
95.1386
 21
0.0738678
  0
LINE
  8
0
 10
95.1386
 20
0.0738678
 11
95.6007
 21
0.165771
  0
LINE
  8
0
 10
95.6007
 20
0.165771
 11
96.0541
 21
0.293655
  0
LINE
  8
0
 10
96.0541
 20
0.293655
 11
96.4961
 21
0.456711
  0
LINE
  8
0
 10
96.4961
 20
0.456711
 11
96.924
 21
0.653946
  0
LINE
  8
0
 10
96.924
 20
0.653946
 11
97.335
 21
0.884155
  0
LINE
  8
0
 10
97.335
 20
0.884155
 11
97.7267
 21
1.14589
  0
LINE
  8
0
 10
97.7267
 20
1.14589
 11
98.0967
 21
1.43756
  0
LINE
  8
0
 10
98.0967
 20
1.43756
 11
98.4426
 21
1.75735
  0
LINE
  8
0
 10
98.4426
 20
1.75735
 11
98.7624
 21
2.1033
  0
LINE
  8
0
 10
98.7624
 20
2.1033
 11
99.0541
 21
2.47328
  0
LINE
  8
0
 10
99.0541
 20
2.47328
 11
99.3158
 21
2.86501
  0
LINE
  8
0
 10
99.3158
 20
2.86501
 11
99.5461
 21
3.27605
  0
LINE
  8
0
 10
99.5461
 20
3.27605
 11
99.7433
 21
3.70389
  0
LINE
  8
0
 10
99.7433
 20
3.70389
 11
99.9063
 21
4.14589
  0
LINE
  8
0
 10
99.9063
 20
4.14589
 11
100.034
 21
4.59932
  0
LINE
  8
0
 10
100.034
 20
4.59932
 11
100.126
 21
5.06139
  0
LINE
  8
0
 10
100.126
 20
5.06139
 11
100.182
 21
5.52924
  0
LINE
  8
0
 10
100.182
 20
5.52924
 11
100.2
 21
6
  0
LINE
  8
0
 10
100.2
 20
6
 11
100.2
 21
136.25
  0
LINE
  8
0
 10
100.2
 20
136.25
 11
100.182
 21
136.721
  0
LINE
  8
0
 10
100.182
 20
136.721
 11
100.126
 21
137.189
  0
LINE
  8
0
 10
100.126
 20
137.189
 11
100.034
 21
137.651
  0
LINE
  8
0
 10
100.034
 20
137.651
 11
99.9064
 21
138.104
  0
LINE
  8
0
 10
99.9064
 20
138.104
 11
99.7433
 21
138.546
  0
LINE
  8
0
 10
99.7433
 20
138.546
 11
99.5461
 21
138.974
  0
LINE
  8
0
 10
99.5461
 20
138.974
 11
99.3159
 21
139.385
  0
LINE
  8
0
 10
99.3159
 20
139.385
 11
99.0541
 21
139.777
  0
LINE
  8
0
 10
99.0541
 20
139.777
 11
98.7625
 21
140.147
  0
LINE
  8
0
 10
98.7625
 20
140.147
 11
98.4427
 21
140.493
  0
LINE
  8
0
 10
98.4427
 20
140.493
 11
98.0967
 21
140.812
  0
LINE
  8
0
 10
98.0967
 20
140.812
 11
97.7267
 21
141.104
  0
LINE
  8
0
 10
97.7267
 20
141.104
 11
97.335
 21
141.366
  0
LINE
  8
0
 10
97.335
 20
141.366
 11
96.924
 21
141.596
  0
LINE
  8
0
 10
96.924
 20
141.596
 11
96.4961
 21
141.793
  0
LINE
  8
0
 10
96.4961
 20
141.793
 11
96.0541
 21
141.956
  0
LINE
  8
0
 10
96.0541
 20
141.956
 11
95.6007
 21
142.084
  0
LINE
  8
0
 10
95.6007
 20
142.084
 11
95.1386
 21
142.176
  0
LINE
  8
0
 10
95.1386
 20
142.176
 11
94.6708
 21
142.232
  0
LINE
  8
0
 10
94.6708
 20
142.232
 11
94.2
 21
142.25
  0
LINE
  8
0
 10
94.2
 20
142.25
 11
5.99998
 21
142.25
  0
LINE
  8
0
 10
5.99998
 20
142.25
 11
5.52924
 21
142.232
  0
LINE
  8
0
 10
5.52924
 20
142.232
 11
5.06139
 21
142.176
  0
LINE
  8
0
 10
5.06139
 20
142.176
 11
4.59932
 21
142.084
  0
LINE
  8
0
 10
4.59932
 20
142.084
 11
4.14589
 21
141.956
  0
LINE
  8
0
 10
4.14589
 20
141.956
 11
3.70389
 21
141.793
  0
LINE
  8
0
 10
3.70389
 20
141.793
 11
3.27605
 21
141.596
  0
LINE
  8
0
 10
3.27605
 20
141.596
 11
2.86501
 21
141.366
  0
LINE
  8
0
 10
2.86501
 20
141.366
 11
2.47328
 21
141.104
  0
LINE
  8
0
 10
2.47328
 20
141.104
 11
2.1033
 21
140.812
  0
LINE
  8
0
 10
2.1033
 20
140.812
 11
1.75735
 21
140.493
  0
LINE
  8
0
 10
1.75735
 20
140.493
 11
1.43756
 21
140.147
  0
LINE
  8
0
 10
1.43756
 20
140.147
 11
1.14589
 21
139.777
  0
LINE
  8
0
 10
1.14589
 20
139.777
 11
0.884155
 21
139.385
  0
LINE
  8
0
 10
0.884155
 20
139.385
 11
0.653946
 21
138.974
  0
LINE
  8
0
 10
0.653946
 20
138.974
 11
0.456711
 21
138.546
  0
LINE
  8
0
 10
0.456711
 20
138.546
 11
0.293655
 21
138.104
  0
LINE
  8
0
 10
0.293655
 20
138.104
 11
0.165771
 21
137.651
  0
LINE
  8
0
 10
0.165771
 20
137.651
 11
0.0738678
 21
137.189
  0
LINE
  8
0
 10
0.0738678
 20
137.189
 11
0.0184937
 21
136.721
  0
LINE
  8
0
 10
0.0184937
 20
136.721
 11
0
 21
136.25
  0
LINE
  8
0
 10
0
 20
136.25
 11
0
 21
6
  0
LINE
  8
0
 10
0
 20
6
 11
0.0184937
 21
5.52924
  0
LINE
  8
0
 10
0.0184937
 20
5.52924
 11
0.0738678
 21
5.06139
  0
LINE
  8
0
 10
0.0738678
 20
5.06139
 11
0.165771
 21
4.59932
  0
LINE
  8
0
 10
0.165771
 20
4.59932
 11
0.293655
 21
4.14589
  0
LINE
  8
0
 10
0.293655
 20
4.14589
 11
0.456711
 21
3.70389
  0
LINE
  8
0
 10
0.456711
 20
3.70389
 11
0.653946
 21
3.27605
  0
LINE
  8
0
 10
0.653946
 20
3.27605
 11
0.884155
 21
2.86501
  0
LINE
  8
0
 10
0.884155
 20
2.86501
 11
1.14589
 21
2.47328
  0
LINE
  8
0
 10
1.14589
 20
2.47328
 11
1.43756
 21
2.1033
  0
LINE
  8
0
 10
1.43756
 20
2.1033
 11
1.75735
 21
1.75735
  0
LINE
  8
0
 10
1.75735
 20
1.75735
 11
2.1033
 21
1.43756
  0
LINE
  8
0
 10
2.1033
 20
1.43756
 11
2.47328
 21
1.14589
  0
LINE
  8
0
 10
2.47328
 20
1.14589
 11
2.86501
 21
0.884155
  0
LINE
  8
0
 10
2.86501
 20
0.884155
 11
3.27605
 21
0.653946
  0
LINE
  8
0
 10
3.27605
 20
0.653946
 11
3.70389
 21
0.456711
  0
LINE
  8
0
 10
3.70389
 20
0.456711
 11
4.14589
 21
0.293655
  0
LINE
  8
0
 10
4.14589
 20
0.293655
 11
4.59932
 21
0.165771
  0
LINE
  8
0
 10
4.59932
 20
0.165771
 11
5.06139
 21
0.0738678
  0
LINE
  8
0
 10
5.06139
 20
0.0738678
 11
5.52924
 21
0.0184937
  0
LINE
  8
0
 10
5.52924
 20
0.0184937
 11
5.99998
 21
0
  0
LINE
  8
0
 10
5.99998
 20
0
 11
94.2
 21
0
  0
LINE
  8
0
 10
94.2
 20
0
 11
94.6708
 21
0.0184937
  0
LINE
  8
0
 10
5.53647
 20
134.823
 11
5.11832
 21
135.036
  0
LINE
  8
0
 10
5.11832
 20
135.036
 11
4.78647
 21
135.368
  0
LINE
  8
0
 10
4.78647
 20
135.368
 11
4.57341
 21
135.786
  0
LINE
  8
0
 10
4.57341
 20
135.786
 11
4.5
 21
136.25
  0
LINE
  8
0
 10
4.5
 20
136.25
 11
4.57341
 21
136.714
  0
LINE
  8
0
 10
4.57341
 20
136.714
 11
4.78647
 21
137.132
  0
LINE
  8
0
 10
4.78647
 20
137.132
 11
5.11832
 21
137.464
  0
LINE
  8
0
 10
5.11832
 20
137.464
 11
5.53647
 21
137.677
  0
LINE
  8
0
 10
5.53647
 20
137.677
 11
6
 21
137.75
  0
LINE
  8
0
 10
6
 20
137.75
 11
6.46352
 21
137.677
  0
LINE
  8
0
 10
6.46352
 20
137.677
 11
6.88167
 21
137.464
  0
LINE
  8
0
 10
6.88167
 20
137.464
 11
7.21352
 21
137.132
  0
LINE
  8
0
 10
7.21352
 20
137.132
 11
7.42657
 21
136.714
  0
LINE
  8
0
 10
7.42657
 20
136.714
 11
7.5
 21
136.25
  0
LINE
  8
0
 10
7.5
 20
136.25
 11
7.42657
 21
135.786
  0
LINE
  8
0
 10
7.42657
 20
135.786
 11
7.21352
 21
135.368
  0
LINE
  8
0
 10
7.21352
 20
135.368
 11
6.88167
 21
135.036
  0
LINE
  8
0
 10
6.88167
 20
135.036
 11
6.46352
 21
134.823
  0
LINE
  8
0
 10
6.46352
 20
134.823
 11
6
 21
134.75
  0
LINE
  8
0
 10
6
 20
134.75
 11
5.53647
 21
134.823
  0
LINE
  8
0
 10
49.6365
 20
134.823
 11
49.2183
 21
135.036
  0
LINE
  8
0
 10
49.2183
 20
135.036
 11
48.8865
 21
135.368
  0
LINE
  8
0
 10
48.8865
 20
135.368
 11
48.6734
 21
135.786
  0
LINE
  8
0
 10
48.6734
 20
135.786
 11
48.6
 21
136.25
  0
LINE
  8
0
 10
48.6
 20
136.25
 11
48.6734
 21
136.714
  0
LINE
  8
0
 10
48.6734
 20
136.714
 11
48.8865
 21
137.132
  0
LINE
  8
0
 10
48.8865
 20
137.132
 11
49.2183
 21
137.464
  0
LINE
  8
0
 10
49.2183
 20
137.464
 11
49.6365
 21
137.677
  0
LINE
  8
0
 10
49.6365
 20
137.677
 11
50.1
 21
137.75
  0
LINE
  8
0
 10
50.1
 20
137.75
 11
50.5635
 21
137.677
  0
LINE
  8
0
 10
50.5635
 20
137.677
 11
50.9817
 21
137.464
  0
LINE
  8
0
 10
50.9817
 20
137.464
 11
51.3135
 21
137.132
  0
LINE
  8
0
 10
51.3135
 20
137.132
 11
51.5266
 21
136.714
  0
LINE
  8
0
 10
51.5266
 20
136.714
 11
51.6
 21
136.25
  0
LINE
  8
0
 10
51.6
 20
136.25
 11
51.5266
 21
135.786
  0
LINE
  8
0
 10
51.5266
 20
135.786
 11
51.3135
 21
135.368
  0
LINE
  8
0
 10
51.3135
 20
135.368
 11
50.9817
 21
135.036
  0
LINE
  8
0
 10
50.9817
 20
135.036
 11
50.5635
 21
134.823
  0
LINE
  8
0
 10
50.5635
 20
134.823
 11
50.1
 21
134.75
  0
LINE
  8
0
 10
50.1
 20
134.75
 11
49.6365
 21
134.823
  0
LINE
  8
0
 10
93.7365
 20
134.823
 11
93.3183
 21
135.036
  0
LINE
  8
0
 10
93.3183
 20
135.036
 11
92.9865
 21
135.368
  0
LINE
  8
0
 10
92.9865
 20
135.368
 11
92.7734
 21
135.786
  0
LINE
  8
0
 10
92.7734
 20
135.786
 11
92.7
 21
136.25
  0
LINE
  8
0
 10
92.7
 20
136.25
 11
92.7734
 21
136.714
  0
LINE
  8
0
 10
92.7734
 20
136.714
 11
92.9865
 21
137.132
  0
LINE
  8
0
 10
92.9865
 20
137.132
 11
93.3183
 21
137.464
  0
LINE
  8
0
 10
93.3183
 20
137.464
 11
93.7365
 21
137.677
  0
LINE
  8
0
 10
93.7365
 20
137.677
 11
94.2
 21
137.75
  0
LINE
  8
0
 10
94.2
 20
137.75
 11
94.6635
 21
137.677
  0
LINE
  8
0
 10
94.6635
 20
137.677
 11
95.0817
 21
137.464
  0
LINE
  8
0
 10
95.0817
 20
137.464
 11
95.4135
 21
137.132
  0
LINE
  8
0
 10
95.4135
 20
137.132
 11
95.6266
 21
136.714
  0
LINE
  8
0
 10
95.6266
 20
136.714
 11
95.7
 21
136.25
  0
LINE
  8
0
 10
95.7
 20
136.25
 11
95.6266
 21
135.786
  0
LINE
  8
0
 10
95.6266
 20
135.786
 11
95.4135
 21
135.368
  0
LINE
  8
0
 10
95.4135
 20
135.368
 11
95.0817
 21
135.036
  0
LINE
  8
0
 10
95.0817
 20
135.036
 11
94.6635
 21
134.823
  0
LINE
  8
0
 10
94.6635
 20
134.823
 11
94.2
 21
134.75
  0
LINE
  8
0
 10
94.2
 20
134.75
 11
93.7365
 21
134.823
  0
LINE
  8
0
 10
5.53647
 20
4.57341
 11
5.11832
 21
4.78647
  0
LINE
  8
0
 10
5.11832
 20
4.78647
 11
4.78647
 21
5.11832
  0
LINE
  8
0
 10
4.78647
 20
5.11832
 11
4.57341
 21
5.53647
  0
LINE
  8
0
 10
4.57341
 20
5.53647
 11
4.5
 21
6
  0
LINE
  8
0
 10
4.5
 20
6
 11
4.57341
 21
6.46352
  0
LINE
  8
0
 10
4.57341
 20
6.46352
 11
4.78647
 21
6.88167
  0
LINE
  8
0
 10
4.78647
 20
6.88167
 11
5.11832
 21
7.21352
  0
LINE
  8
0
 10
5.11832
 20
7.21352
 11
5.53647
 21
7.42657
  0
LINE
  8
0
 10
5.53647
 20
7.42657
 11
6
 21
7.5
  0
LINE
  8
0
 10
6
 20
7.5
 11
6.46352
 21
7.42657
  0
LINE
  8
0
 10
6.46352
 20
7.42657
 11
6.88167
 21
7.21352
  0
LINE
  8
0
 10
6.88167
 20
7.21352
 11
7.21352
 21
6.88167
  0
LINE
  8
0
 10
7.21352
 20
6.88167
 11
7.42657
 21
6.46352
  0
LINE
  8
0
 10
7.42657
 20
6.46352
 11
7.5
 21
6
  0
LINE
  8
0
 10
7.5
 20
6
 11
7.42657
 21
5.53647
  0
LINE
  8
0
 10
7.42657
 20
5.53647
 11
7.21352
 21
5.11832
  0
LINE
  8
0
 10
7.21352
 20
5.11832
 11
6.88167
 21
4.78647
  0
LINE
  8
0
 10
6.88167
 20
4.78647
 11
6.46352
 21
4.57341
  0
LINE
  8
0
 10
6.46352
 20
4.57341
 11
6
 21
4.5
  0
LINE
  8
0
 10
6
 20
4.5
 11
5.53647
 21
4.57341
  0
LINE
  8
0
 10
49.6365
 20
4.57341
 11
49.2183
 21
4.78647
  0
LINE
  8
0
 10
49.2183
 20
4.78647
 11
48.8865
 21
5.11832
  0
LINE
  8
0
 10
48.8865
 20
5.11832
 11
48.6734
 21
5.53647
  0
LINE
  8
0
 10
48.6734
 20
5.53647
 11
48.6
 21
6
  0
LINE
  8
0
 10
48.6
 20
6
 11
48.6734
 21
6.46352
  0
LINE
  8
0
 10
48.6734
 20
6.46352
 11
48.8865
 21
6.88167
  0
LINE
  8
0
 10
48.8865
 20
6.88167
 11
49.2183
 21
7.21352
  0
LINE
  8
0
 10
49.2183
 20
7.21352
 11
49.6365
 21
7.42657
  0
LINE
  8
0
 10
49.6365
 20
7.42657
 11
50.1
 21
7.5
  0
LINE
  8
0
 10
50.1
 20
7.5
 11
50.5635
 21
7.42657
  0
LINE
  8
0
 10
50.5635
 20
7.42657
 11
50.9817
 21
7.21352
  0
LINE
  8
0
 10
50.9817
 20
7.21352
 11
51.3135
 21
6.88167
  0
LINE
  8
0
 10
51.3135
 20
6.88167
 11
51.5266
 21
6.46352
  0
LINE
  8
0
 10
51.5266
 20
6.46352
 11
51.6
 21
6
  0
LINE
  8
0
 10
51.6
 20
6
 11
51.5266
 21
5.53647
  0
LINE
  8
0
 10
51.5266
 20
5.53647
 11
51.3135
 21
5.11832
  0
LINE
  8
0
 10
51.3135
 20
5.11832
 11
50.9817
 21
4.78647
  0
LINE
  8
0
 10
50.9817
 20
4.78647
 11
50.5635
 21
4.57341
  0
LINE
  8
0
 10
50.5635
 20
4.57341
 11
50.1
 21
4.5
  0
LINE
  8
0
 10
50.1
 20
4.5
 11
49.6365
 21
4.57341
  0
LINE
  8
0
 10
93.7365
 20
4.57341
 11
93.3183
 21
4.78647
  0
LINE
  8
0
 10
93.3183
 20
4.78647
 11
92.9865
 21
5.11832
  0
LINE
  8
0
 10
92.9865
 20
5.11832
 11
92.7734
 21
5.53647
  0
LINE
  8
0
 10
92.7734
 20
5.53647
 11
92.7
 21
6
  0
LINE
  8
0
 10
92.7
 20
6
 11
92.7734
 21
6.46352
  0
LINE
  8
0
 10
92.7734
 20
6.46352
 11
92.9865
 21
6.88167
  0
LINE
  8
0
 10
92.9865
 20
6.88167
 11
93.3183
 21
7.21352
  0
LINE
  8
0
 10
93.3183
 20
7.21352
 11
93.7365
 21
7.42657
  0
LINE
  8
0
 10
93.7365
 20
7.42657
 11
94.2
 21
7.5
  0
LINE
  8
0
 10
94.2
 20
7.5
 11
94.6635
 21
7.42657
  0
LINE
  8
0
 10
94.6635
 20
7.42657
 11
95.0817
 21
7.21352
  0
LINE
  8
0
 10
95.0817
 20
7.21352
 11
95.4135
 21
6.88167
  0
LINE
  8
0
 10
95.4135
 20
6.88167
 11
95.6266
 21
6.46352
  0
LINE
  8
0
 10
95.6266
 20
6.46352
 11
95.7
 21
6
  0
LINE
  8
0
 10
95.7
 20
6
 11
95.6266
 21
5.53647
  0
LINE
  8
0
 10
95.6266
 20
5.53647
 11
95.4135
 21
5.11832
  0
LINE
  8
0
 10
95.4135
 20
5.11832
 11
95.0817
 21
4.78647
  0
LINE
  8
0
 10
95.0817
 20
4.78647
 11
94.6635
 21
4.57341
  0
LINE
  8
0
 10
94.6635
 20
4.57341
 11
94.2
 21
4.5
  0
LINE
  8
0
 10
94.2
 20
4.5
 11
93.7365
 21
4.57341
  0
ENDSEC
  0
SECTION
  2
OBJECTS
  0
DICTIONARY
  0
ENDSEC
  0
EOF
