  0
SECTION
  2
BLOCKS
  0
ENDSEC
  0
SECTION
  2
ENTITIES
  0
LINE
  8
0
 10
94.6708
 20
0.0184937
 11
95.1386
 21
0.0738678
  0
LINE
  8
0
 10
95.1386
 20
0.0738678
 11
95.6007
 21
0.165771
  0
LINE
  8
0
 10
95.6007
 20
0.165771
 11
96.0541
 21
0.293655
  0
LINE
  8
0
 10
96.0541
 20
0.293655
 11
96.4961
 21
0.456711
  0
LINE
  8
0
 10
96.4961
 20
0.456711
 11
96.924
 21
0.653946
  0
LINE
  8
0
 10
96.924
 20
0.653946
 11
97.335
 21
0.884155
  0
LINE
  8
0
 10
97.335
 20
0.884155
 11
97.7267
 21
1.14589
  0
LINE
  8
0
 10
97.7267
 20
1.14589
 11
98.0967
 21
1.43756
  0
LINE
  8
0
 10
98.0967
 20
1.43756
 11
98.4426
 21
1.75735
  0
LINE
  8
0
 10
98.4426
 20
1.75735
 11
98.7624
 21
2.1033
  0
LINE
  8
0
 10
98.7624
 20
2.1033
 11
99.0541
 21
2.47328
  0
LINE
  8
0
 10
99.0541
 20
2.47328
 11
99.3158
 21
2.86501
  0
LINE
  8
0
 10
99.3158
 20
2.86501
 11
99.5461
 21
3.27605
  0
LINE
  8
0
 10
99.5461
 20
3.27605
 11
99.7433
 21
3.70389
  0
LINE
  8
0
 10
99.7433
 20
3.70389
 11
99.9063
 21
4.14589
  0
LINE
  8
0
 10
99.9063
 20
4.14589
 11
100.034
 21
4.59932
  0
LINE
  8
0
 10
100.034
 20
4.59932
 11
100.126
 21
5.06139
  0
LINE
  8
0
 10
100.126
 20
5.06139
 11
100.182
 21
5.52924
  0
LINE
  8
0
 10
100.182
 20
5.52924
 11
100.2
 21
6
  0
LINE
  8
0
 10
100.2
 20
6
 11
100.2
 21
136.25
  0
LINE
  8
0
 10
100.2
 20
136.25
 11
100.182
 21
136.721
  0
LINE
  8
0
 10
100.182
 20
136.721
 11
100.126
 21
137.189
  0
LINE
  8
0
 10
100.126
 20
137.189
 11
100.034
 21
137.651
  0
LINE
  8
0
 10
100.034
 20
137.651
 11
99.9064
 21
138.104
  0
LINE
  8
0
 10
99.9064
 20
138.104
 11
99.7433
 21
138.546
  0
LINE
  8
0
 10
99.7433
 20
138.546
 11
99.5461
 21
138.974
  0
LINE
  8
0
 10
99.5461
 20
138.974
 11
99.3159
 21
139.385
  0
LINE
  8
0
 10
99.3159
 20
139.385
 11
99.0541
 21
139.777
  0
LINE
  8
0
 10
99.0541
 20
139.777
 11
98.7625
 21
140.147
  0
LINE
  8
0
 10
98.7625
 20
140.147
 11
98.4427
 21
140.493
  0
LINE
  8
0
 10
98.4427
 20
140.493
 11
98.0967
 21
140.812
  0
LINE
  8
0
 10
98.0967
 20
140.812
 11
97.7267
 21
141.104
  0
LINE
  8
0
 10
97.7267
 20
141.104
 11
97.335
 21
141.366
  0
LINE
  8
0
 10
97.335
 20
141.366
 11
96.924
 21
141.596
  0
LINE
  8
0
 10
96.924
 20
141.596
 11
96.4961
 21
141.793
  0
LINE
  8
0
 10
96.4961
 20
141.793
 11
96.0541
 21
141.956
  0
LINE
  8
0
 10
96.0541
 20
141.956
 11
95.6007
 21
142.084
  0
LINE
  8
0
 10
95.6007
 20
142.084
 11
95.1386
 21
142.176
  0
LINE
  8
0
 10
95.1386
 20
142.176
 11
94.6708
 21
142.232
  0
LINE
  8
0
 10
94.6708
 20
142.232
 11
94.2
 21
142.25
  0
LINE
  8
0
 10
94.2
 20
142.25
 11
5.99998
 21
142.25
  0
LINE
  8
0
 10
5.99998
 20
142.25
 11
5.52924
 21
142.232
  0
LINE
  8
0
 10
5.52924
 20
142.232
 11
5.06139
 21
142.176
  0
LINE
  8
0
 10
5.06139
 20
142.176
 11
4.59932
 21
142.084
  0
LINE
  8
0
 10
4.59932
 20
142.084
 11
4.14589
 21
141.956
  0
LINE
  8
0
 10
4.14589
 20
141.956
 11
3.70389
 21
141.793
  0
LINE
  8
0
 10
3.70389
 20
141.793
 11
3.27605
 21
141.596
  0
LINE
  8
0
 10
3.27605
 20
141.596
 11
2.86501
 21
141.366
  0
LINE
  8
0
 10
2.86501
 20
141.366
 11
2.47328
 21
141.104
  0
LINE
  8
0
 10
2.47328
 20
141.104
 11
2.1033
 21
140.812
  0
LINE
  8
0
 10
2.1033
 20
140.812
 11
1.75735
 21
140.493
  0
LINE
  8
0
 10
1.75735
 20
140.493
 11
1.43756
 21
140.147
  0
LINE
  8
0
 10
1.43756
 20
140.147
 11
1.14589
 21
139.777
  0
LINE
  8
0
 10
1.14589
 20
139.777
 11
0.884155
 21
139.385
  0
LINE
  8
0
 10
0.884155
 20
139.385
 11
0.653946
 21
138.974
  0
LINE
  8
0
 10
0.653946
 20
138.974
 11
0.456711
 21
138.546
  0
LINE
  8
0
 10
0.456711
 20
138.546
 11
0.293655
 21
138.104
  0
LINE
  8
0
 10
0.293655
 20
138.104
 11
0.165771
 21
137.651
  0
LINE
  8
0
 10
0.165771
 20
137.651
 11
0.0738678
 21
137.189
  0
LINE
  8
0
 10
0.0738678
 20
137.189
 11
0.0184937
 21
136.721
  0
LINE
  8
0
 10
0.0184937
 20
136.721
 11
0
 21
136.25
  0
LINE
  8
0
 10
0
 20
136.25
 11
0
 21
6
  0
LINE
  8
0
 10
0
 20
6
 11
0.0184937
 21
5.52924
  0
LINE
  8
0
 10
0.0184937
 20
5.52924
 11
0.0738678
 21
5.06139
  0
LINE
  8
0
 10
0.0738678
 20
5.06139
 11
0.165771
 21
4.59932
  0
LINE
  8
0
 10
0.165771
 20
4.59932
 11
0.293655
 21
4.14589
  0
LINE
  8
0
 10
0.293655
 20
4.14589
 11
0.456711
 21
3.70389
  0
LINE
  8
0
 10
0.456711
 20
3.70389
 11
0.653946
 21
3.27605
  0
LINE
  8
0
 10
0.653946
 20
3.27605
 11
0.884155
 21
2.86501
  0
LINE
  8
0
 10
0.884155
 20
2.86501
 11
1.14589
 21
2.47328
  0
LINE
  8
0
 10
1.14589
 20
2.47328
 11
1.43756
 21
2.1033
  0
LINE
  8
0
 10
1.43756
 20
2.1033
 11
1.75735
 21
1.75735
  0
LINE
  8
0
 10
1.75735
 20
1.75735
 11
2.1033
 21
1.43756
  0
LINE
  8
0
 10
2.1033
 20
1.43756
 11
2.47328
 21
1.14589
  0
LINE
  8
0
 10
2.47328
 20
1.14589
 11
2.86501
 21
0.884155
  0
LINE
  8
0
 10
2.86501
 20
0.884155
 11
3.27605
 21
0.653946
  0
LINE
  8
0
 10
3.27605
 20
0.653946
 11
3.70389
 21
0.456711
  0
LINE
  8
0
 10
3.70389
 20
0.456711
 11
4.14589
 21
0.293655
  0
LINE
  8
0
 10
4.14589
 20
0.293655
 11
4.59932
 21
0.165771
  0
LINE
  8
0
 10
4.59932
 20
0.165771
 11
5.06139
 21
0.0738678
  0
LINE
  8
0
 10
5.06139
 20
0.0738678
 11
5.52924
 21
0.0184937
  0
LINE
  8
0
 10
5.52924
 20
0.0184937
 11
5.99998
 21
0
  0
LINE
  8
0
 10
5.99998
 20
0
 11
94.2
 21
0
  0
LINE
  8
0
 10
94.2
 20
0
 11
94.6708
 21
0.0184937
  0
LINE
  8
0
 10
4.74998
 20
134.085
 11
3.5
 21
136.25
  0
LINE
  8
0
 10
3.5
 20
136.25
 11
4.75
 21
138.415
  0
LINE
  8
0
 10
4.75
 20
138.415
 11
7.25
 21
138.415
  0
LINE
  8
0
 10
7.25
 20
138.415
 11
8.5
 21
136.25
  0
LINE
  8
0
 10
8.5
 20
136.25
 11
7.25
 21
134.085
  0
LINE
  8
0
 10
7.25
 20
134.085
 11
4.74998
 21
134.085
  0
LINE
  8
0
 10
48.85
 20
134.085
 11
47.6
 21
136.25
  0
LINE
  8
0
 10
47.6
 20
136.25
 11
48.85
 21
138.415
  0
LINE
  8
0
 10
48.85
 20
138.415
 11
51.35
 21
138.415
  0
LINE
  8
0
 10
51.35
 20
138.415
 11
52.6
 21
136.25
  0
LINE
  8
0
 10
52.6
 20
136.25
 11
51.35
 21
134.085
  0
LINE
  8
0
 10
51.35
 20
134.085
 11
48.85
 21
134.085
  0
LINE
  8
0
 10
92.95
 20
134.085
 11
91.7
 21
136.25
  0
LINE
  8
0
 10
91.7
 20
136.25
 11
92.95
 21
138.415
  0
LINE
  8
0
 10
92.95
 20
138.415
 11
95.45
 21
138.415
  0
LINE
  8
0
 10
95.45
 20
138.415
 11
96.7
 21
136.25
  0
LINE
  8
0
 10
96.7
 20
136.25
 11
95.45
 21
134.085
  0
LINE
  8
0
 10
95.45
 20
134.085
 11
92.95
 21
134.085
  0
LINE
  8
0
 10
12
 20
12
 11
12
 21
130.25
  0
LINE
  8
0
 10
12
 20
130.25
 11
88.2
 21
130.25
  0
LINE
  8
0
 10
88.2
 20
130.25
 11
88.2
 21
12
  0
LINE
  8
0
 10
88.2
 20
12
 11
12
 21
12
  0
LINE
  8
0
 10
4.74998
 20
3.83493
 11
3.5
 21
6
  0
LINE
  8
0
 10
3.5
 20
6
 11
4.75
 21
8.16505
  0
LINE
  8
0
 10
4.75
 20
8.16505
 11
7.25
 21
8.16505
  0
LINE
  8
0
 10
7.25
 20
8.16505
 11
8.5
 21
6
  0
LINE
  8
0
 10
8.5
 20
6
 11
7.25
 21
3.83493
  0
LINE
  8
0
 10
7.25
 20
3.83493
 11
4.74998
 21
3.83493
  0
LINE
  8
0
 10
48.85
 20
3.83493
 11
47.6
 21
6
  0
LINE
  8
0
 10
47.6
 20
6
 11
48.85
 21
8.16505
  0
LINE
  8
0
 10
48.85
 20
8.16505
 11
51.35
 21
8.16505
  0
LINE
  8
0
 10
51.35
 20
8.16505
 11
52.6
 21
6
  0
LINE
  8
0
 10
52.6
 20
6
 11
51.35
 21
3.83493
  0
LINE
  8
0
 10
51.35
 20
3.83493
 11
48.85
 21
3.83493
  0
LINE
  8
0
 10
92.95
 20
3.83493
 11
91.7
 21
6
  0
LINE
  8
0
 10
91.7
 20
6
 11
92.95
 21
8.16505
  0
LINE
  8
0
 10
92.95
 20
8.16505
 11
95.45
 21
8.16505
  0
LINE
  8
0
 10
95.45
 20
8.16505
 11
96.7
 21
6
  0
LINE
  8
0
 10
96.7
 20
6
 11
95.45
 21
3.83493
  0
LINE
  8
0
 10
95.45
 20
3.83493
 11
92.95
 21
3.83493
  0
ENDSEC
  0
SECTION
  2
OBJECTS
  0
DICTIONARY
  0
ENDSEC
  0
EOF
