  0
SECTION
  2
HEADER
  9
$ACADVER
  1
AC1014
  9
$HANDSEED
  5
FFFF
  9
$MEASUREMENT
 70
     1
  0
ENDSEC
  0
SECTION
  2
TABLES
  0
TABLE
  2
VPORT
  5
8
330
0
100
AcDbSymbolTable
 70
     4
  0
VPORT
  5
2E
330
8
100
AcDbSymbolTableRecord
100
AcDbViewportTableRecord
  2
*ACTIVE
 70
     0
 10
0.0
 20
0.0
 11
1.0
 21
1.0
 12
210.0
 22
148.5
 13
0.0
 23
0.0
 14
10.0
 24
10.0
 15
10.0
 25
10.0
 16
0.0
 26
0.0
 36
1.0
 17
0.0
 27
0.0
 37
0.0
 40
341.0
 41
1.24
 42
50.0
 43
0.0
 44
0.0
 50
0.0
 51
0.0
 71
     0
 72
   100
 73
     1
 74
     3
 75
     0
 76
     0
 77
     0
 78
     0
  0
ENDTAB
  0
TABLE
  2
LTYPE
  5
5
330
0
100
AcDbSymbolTable
 70
     1
  0
LTYPE
  5
14
330
5
100
AcDbSymbolTableRecord
100
AcDbLinetypeTableRecord
  2
BYBLOCK
 70
     0
  3

 72
    65
 73
     0
 40
0.0
  0
LTYPE
  5
15
330
5
100
AcDbSymbolTableRecord
100
AcDbLinetypeTableRecord
  2
BYLAYER
 70
     0
  3

 72
    65
 73
     0
 40
0.0
  0
LTYPE
  5
16
330
5
100
AcDbSymbolTableRecord
100
AcDbLinetypeTableRecord
  2
CONTINUOUS
 70
     0
  3
Solid line
 72
    65
 73
     0
 40
0.0
  0
ENDTAB
  0
TABLE
  2
LAYER
  5
2
100
AcDbSymbolTable
 70
5
  0
LAYER
  5
50
100
AcDbSymbolTableRecord
100
AcDbLayerTableRecord
  2
0
 70
0
  6
CONTINUOUS
  0
LAYER
  5
51
100
AcDbSymbolTableRecord
100
AcDbLayerTableRecord
  2
numpad_plate
 70
0
  6
CONTINUOUS
  0
LAYER
  5
52
100
AcDbSymbolTableRecord
100
AcDbLayerTableRecord
  2
numpad_base
 70
0
  6
CONTINUOUS
  0
LAYER
  5
53
100
AcDbSymbolTableRecord
100
AcDbLayerTableRecord
  2
Cuts
 70
0
  6
CONTINUOUS
  0
LAYER
  5
54
100
AcDbSymbolTableRecord
100
AcDbLayerTableRecord
  2
Layer_1
 70
0
  6
CONTINUOUS
  0
ENDTAB
  0
TABLE
  2
STYLE
  5
3
330
0
100
AcDbSymbolTable
 70
     1
  0
STYLE
  5
11
330
3
100
AcDbSymbolTableRecord
100
AcDbTextStyleTableRecord
  2
STANDARD
 70
     0
 40
0.0
 41
1.0
 50
0.0
 71
     0
 42
2.5
  3
txt
  4

  0
ENDTAB
  0
TABLE
  2
VIEW
  5
6
330
0
100
AcDbSymbolTable
 70
     0
  0
ENDTAB
  0
TABLE
  2
UCS
  5
7
330
0
100
AcDbSymbolTable
 70
     0
  0
ENDTAB
  0
TABLE
  2
APPID
  5
9
330
0
100
AcDbSymbolTable
 70
     2
  0
APPID
  5
12
330
9
100
AcDbSymbolTableRecord
100
AcDbRegAppTableRecord
  2
ACAD
 70
     0
  0
ENDTAB
  0
TABLE
  2
DIMSTYLE
  5
A
330
0
100
AcDbSymbolTable
 70
     1
  0
DIMSTYLE
105
27
330
A
100
AcDbSymbolTableRecord
100
AcDbDimStyleTableRecord
  2
ISO-25
 70
     0
  3

  4

  5

  6

  7

 40
1.0
 41
2.5
 42
0.625
 43
3.75
 44
1.25
 45
0.0
 46
0.0
 47
0.0
 48
0.0
140
2.5
141
2.5
142
0.0
143
0.03937007874016
144
1.0
145
0.0
146
1.0
147
0.625
 71
     0
 72
     0
 73
     0
 74
     0
 75
     0
 76
     0
 77
     1
 78
     8
170
     0
171
     3
172
     1
173
     0
174
     0
175
     0
176
     0
177
     0
178
     0
270
     2
271
     2
272
     2
273
     2
274
     3
340
11
275
     0
280
     0
281
     0
282
     0
283
     0
284
     8
285
     0
286
     0
287
     3
288
     0
  0
ENDTAB
  0
TABLE
  2
BLOCK_RECORD
  5
1
330
0
100
AcDbSymbolTable
 70
     1
  0
BLOCK_RECORD
  5
1F
330
1
100
AcDbSymbolTableRecord
100
AcDbBlockTableRecord
  2
*MODEL_SPACE
  0
BLOCK_RECORD
  5
1B
330
1
100
AcDbSymbolTableRecord
100
AcDbBlockTableRecord
  2
*PAPER_SPACE
  0
ENDTAB
  0
ENDSEC
  0
SECTION
  2
BLOCKS
  0
BLOCK
  5
20
330
1F
100
AcDbEntity
  8
0
100
AcDbBlockBegin
  2
*MODEL_SPACE
 70
     0
 10
0.0
 20
0.0
 30
0.0
  3
*MODEL_SPACE
  1

  0
ENDBLK
  5
21
330
1F
100
AcDbEntity
  8
0
100
AcDbBlockEnd
  0
BLOCK
  5
1C
330
1B
100
AcDbEntity
 67
     1
  8
0
100
AcDbBlockBegin
  2
*PAPER_SPACE
  1

  0
ENDBLK
  5
1D
330
1B
100
AcDbEntity
 67
     1
  8
0
100
AcDbBlockEnd
  0
ENDSEC
  0
SECTION
  2
ENTITIES
  0
LWPOLYLINE
  5
100
100
AcDbEntity
  8
0
 62
1
100
AcDbPolyline
 90
2
 70
0
 10
99.539790
 20
80.216989
 30
0.0
 10
99.539790
 20
119.816861
 30
0.0
  0
LWPOLYLINE
  5
101
100
AcDbEntity
  8
0
 62
1
100
AcDbPolyline
 90
2
 70
0
 10
139.139633
 20
119.816861
 30
0.0
 10
139.139633
 20
80.216989
 30
0.0
  0
LWPOLYLINE
  5
102
100
AcDbEntity
  8
0
 62
1
100
AcDbPolyline
 90
2
 70
0
 10
80.819865
 20
117.656869
 30
0.0
 10
80.819865
 20
78.056989
 30
0.0
  0
LWPOLYLINE
  5
103
100
AcDbEntity
  8
0
 62
1
100
AcDbPolyline
 90
2
 70
0
 10
90.179827
 20
117.656869
 30
0.0
 10
90.179827
 20
78.056989
 30
0.0
  0
LWPOLYLINE
  5
104
100
AcDbEntity
  8
0
 62
1
100
AcDbPolyline
 90
2
 70
0
 10
148.499595
 20
117.656869
 30
0.0
 10
148.499595
 20
78.056989
 30
0.0
  0
LWPOLYLINE
  5
105
100
AcDbEntity
  8
0
 62
1
100
AcDbPolyline
 90
2
 70
0
 10
157.859557
 20
117.656869
 30
0.0
 10
157.859557
 20
78.056989
 30
0.0
  0
LWPOLYLINE
  5
106
100
AcDbEntity
  8
0
 62
1
100
AcDbPolyline
 90
2
 70
0
 10
115.648462
 20
43.342039
 30
0.0
 10
166.444095
 20
43.342039
 30
0.0
  0
SPLINE
  5
107
100
AcDbEntity
  8
numpad_plate
 62
1
100
AcDbSpline
 70
8
 71
3
 72
8
 73
4
 74
0
 40
0
 40
0
 40
0
 40
0
 40
1
 40
1
 40
1
 40
1
 10
294.761835
 20
51.802339
 30
0.0
 10
299.066813
 20
51.802339
 30
0.0
 10
302.557118
 20
55.292689
 30
0.0
 10
302.557118
 20
59.597614
 30
0.0
  0
LWPOLYLINE
  5
108
100
AcDbEntity
  8
0
 62
1
100
AcDbPolyline
 90
2
 70
0
 10
331.064288
 20
42.911314
 30
0.0
 10
566.397960
 20
42.911314
 30
0.0
  0
SPLINE
  5
109
100
AcDbEntity
  8
numpad_plate
 62
1
100
AcDbSpline
 70
8
 71
3
 72
8
 73
4
 74
0
 40
0
 40
0
 40
0
 40
0
 40
1
 40
1
 40
1
 40
1
 10
302.557118
 20
59.597614
 30
0.0
 10
302.557118
 20
63.902614
 30
0.0
 10
299.066812
 20
67.392889
 30
0.0
 10
294.761835
 20
67.392889
 30
0.0
  0
SPLINE
  5
10a
100
AcDbEntity
  8
numpad_plate
 62
1
100
AcDbSpline
 70
8
 71
3
 72
8
 73
4
 74
0
 40
0
 40
0
 40
0
 40
0
 40
1
 40
1
 40
1
 40
1
 10
294.761835
 20
67.392889
 30
0.0
 10
294.761835
 20
67.392889
 30
0.0
 10
294.761835
 20
67.392889
 30
0.0
 10
290.456865
 20
67.392889
 30
0.0
  0
SPLINE
  5
10b
100
AcDbEntity
  8
numpad_plate
 62
1
100
AcDbSpline
 70
8
 71
3
 72
8
 73
4
 74
0
 40
0
 40
0
 40
0
 40
0
 40
1
 40
1
 40
1
 40
1
 10
290.456865
 20
67.392889
 30
0.0
 10
290.456865
 20
67.392889
 30
0.0
 10
286.966567
 20
63.902614
 30
0.0
 10
286.966567
 20
59.597614
 30
0.0
  0
LWPOLYLINE
  5
10c
100
AcDbEntity
  8
numpad_plate
 62
1
100
AcDbPolyline
 90
1
 70
1
 10
302.557118
 20
59.597614
 30
0.0
  0
SPLINE
  5
10d
100
AcDbEntity
  8
numpad_plate
 62
1
100
AcDbSpline
 70
8
 71
3
 72
8
 73
4
 74
0
 40
0
 40
0
 40
0
 40
0
 40
1
 40
1
 40
1
 40
1
 10
286.966567
 20
59.597614
 30
0.0
 10
286.966567
 20
55.292689
 30
0.0
 10
290.456865
 20
51.802339
 30
0.0
 10
294.761835
 20
51.802339
 30
0.0
  0
SPLINE
  5
10e
100
AcDbEntity
  8
numpad_plate
 62
1
100
AcDbSpline
 70
8
 71
3
 72
8
 73
4
 74
0
 40
0
 40
0
 40
0
 40
0
 40
1
 40
1
 40
1
 40
1
 10
51.849064
 20
51.802339
 30
0.0
 10
56.154041
 20
51.802339
 30
0.0
 10
59.644340
 20
55.292689
 30
0.0
 10
59.644340
 20
59.597614
 30
0.0
  0
LWPOLYLINE
  5
10f
100
AcDbEntity
  8
numpad_plate
 62
1
100
AcDbPolyline
 90
1
 70
1
 10
286.966567
 20
59.597614
 30
0.0
  0
SPLINE
  5
110
100
AcDbEntity
  8
numpad_plate
 62
1
100
AcDbSpline
 70
8
 71
3
 72
8
 73
4
 74
0
 40
0
 40
0
 40
0
 40
0
 40
1
 40
1
 40
1
 40
1
 10
59.644340
 20
59.597614
 30
0.0
 10
59.644340
 20
63.902614
 30
0.0
 10
56.154041
 20
67.392889
 30
0.0
 10
51.849064
 20
67.392889
 30
0.0
  0
SPLINE
  5
111
100
AcDbEntity
  8
numpad_plate
 62
1
100
AcDbSpline
 70
8
 71
3
 72
8
 73
4
 74
0
 40
0
 40
0
 40
0
 40
0
 40
1
 40
1
 40
1
 40
1
 10
51.849064
 20
67.392889
 30
0.0
 10
51.849064
 20
67.392889
 30
0.0
 10
51.849064
 20
67.392889
 30
0.0
 10
47.544088
 20
67.392889
 30
0.0
  0
SPLINE
  5
112
100
AcDbEntity
  8
numpad_plate
 62
1
100
AcDbSpline
 70
8
 71
3
 72
8
 73
4
 74
0
 40
0
 40
0
 40
0
 40
0
 40
1
 40
1
 40
1
 40
1
 10
47.544088
 20
67.392889
 30
0.0
 10
47.544088
 20
67.392889
 30
0.0
 10
44.053789
 20
63.902614
 30
0.0
 10
44.053789
 20
59.597614
 30
0.0
  0
LWPOLYLINE
  5
113
100
AcDbEntity
  8
numpad_plate
 62
1
100
AcDbPolyline
 90
1
 70
1
 10
59.644340
 20
59.597614
 30
0.0
  0
SPLINE
  5
114
100
AcDbEntity
  8
numpad_plate
 62
1
100
AcDbSpline
 70
8
 71
3
 72
8
 73
4
 74
0
 40
0
 40
0
 40
0
 40
0
 40
1
 40
1
 40
1
 40
1
 10
44.053789
 20
59.597614
 30
0.0
 10
44.053790
 20
55.292689
 30
0.0
 10
47.544089
 20
51.802339
 30
0.0
 10
51.849064
 20
51.802339
 30
0.0
  0
SPLINE
  5
115
100
AcDbEntity
  8
numpad_plate
 62
1
100
AcDbSpline
 70
8
 71
3
 72
8
 73
4
 74
0
 40
0
 40
0
 40
0
 40
0
 40
1
 40
1
 40
1
 40
1
 10
49.765034
 20
339.905816
 30
0.0
 10
54.070010
 20
339.905816
 30
0.0
 10
57.560309
 20
343.396121
 30
0.0
 10
57.560309
 20
347.701099
 30
0.0
  0
LWPOLYLINE
  5
116
100
AcDbEntity
  8
numpad_plate
 62
1
100
AcDbPolyline
 90
1
 70
1
 10
44.053789
 20
59.597614
 30
0.0
  0
SPLINE
  5
117
100
AcDbEntity
  8
numpad_plate
 62
1
100
AcDbSpline
 70
8
 71
3
 72
8
 73
4
 74
0
 40
0
 40
0
 40
0
 40
0
 40
1
 40
1
 40
1
 40
1
 10
57.560309
 20
347.701099
 30
0.0
 10
57.560309
 20
352.006069
 30
0.0
 10
54.070009
 20
355.496374
 30
0.0
 10
49.765034
 20
355.496374
 30
0.0
  0
SPLINE
  5
118
100
AcDbEntity
  8
numpad_plate
 62
1
100
AcDbSpline
 70
8
 71
3
 72
8
 73
4
 74
0
 40
0
 40
0
 40
0
 40
0
 40
1
 40
1
 40
1
 40
1
 10
49.765034
 20
355.496374
 30
0.0
 10
49.765034
 20
355.496374
 30
0.0
 10
49.765033
 20
355.496374
 30
0.0
 10
45.460057
 20
355.496366
 30
0.0
  0
SPLINE
  5
119
100
AcDbEntity
  8
numpad_plate
 62
1
100
AcDbSpline
 70
8
 71
3
 72
8
 73
4
 74
0
 40
0
 40
0
 40
0
 40
0
 40
1
 40
1
 40
1
 40
1
 10
45.460057
 20
355.496366
 30
0.0
 10
45.460057
 20
355.496366
 30
0.0
 10
41.969758
 20
352.006069
 30
0.0
 10
41.969758
 20
347.701099
 30
0.0
  0
LWPOLYLINE
  5
11a
100
AcDbEntity
  8
numpad_plate
 62
1
100
AcDbPolyline
 90
1
 70
1
 10
57.560309
 20
347.701099
 30
0.0
  0
SPLINE
  5
11b
100
AcDbEntity
  8
numpad_plate
 62
1
100
AcDbSpline
 70
8
 71
3
 72
8
 73
4
 74
0
 40
0
 40
0
 40
0
 40
0
 40
1
 40
1
 40
1
 40
1
 10
41.969758
 20
347.701099
 30
0.0
 10
41.969758
 20
343.396121
 30
0.0
 10
45.460057
 20
339.905816
 30
0.0
 10
49.765034
 20
339.905816
 30
0.0
  0
SPLINE
  5
11c
100
AcDbEntity
  8
numpad_plate
 62
1
100
AcDbSpline
 70
8
 71
3
 72
8
 73
4
 74
0
 40
0
 40
0
 40
0
 40
0
 40
1
 40
1
 40
1
 40
1
 10
99.908918
 20
418.223959
 30
0.0
 10
104.213895
 20
418.223959
 30
0.0
 10
107.704193
 20
421.714256
 30
0.0
 10
107.704193
 20
426.019234
 30
0.0
  0
LWPOLYLINE
  5
11d
100
AcDbEntity
  8
numpad_plate
 62
1
100
AcDbPolyline
 90
1
 70
1
 10
41.969758
 20
347.701099
 30
0.0
  0
SPLINE
  5
11e
100
AcDbEntity
  8
numpad_plate
 62
1
100
AcDbSpline
 70
8
 71
3
 72
8
 73
4
 74
0
 40
0
 40
0
 40
0
 40
0
 40
1
 40
1
 40
1
 40
1
 10
107.704193
 20
426.019234
 30
0.0
 10
107.704193
 20
430.324211
 30
0.0
 10
104.213895
 20
433.814516
 30
0.0
 10
99.908918
 20
433.814516
 30
0.0
  0
SPLINE
  5
11f
100
AcDbEntity
  8
numpad_plate
 62
1
100
AcDbSpline
 70
8
 71
3
 72
8
 73
4
 74
0
 40
0
 40
0
 40
0
 40
0
 40
1
 40
1
 40
1
 40
1
 10
99.908918
 20
433.814516
 30
0.0
 10
99.908918
 20
433.814516
 30
0.0
 10
99.908918
 20
433.814516
 30
0.0
 10
95.603940
 20
433.814509
 30
0.0
  0
SPLINE
  5
120
100
AcDbEntity
  8
numpad_plate
 62
1
100
AcDbSpline
 70
8
 71
3
 72
8
 73
4
 74
0
 40
0
 40
0
 40
0
 40
0
 40
1
 40
1
 40
1
 40
1
 10
95.603940
 20
433.814509
 30
0.0
 10
95.603940
 20
433.814509
 30
0.0
 10
92.113643
 20
430.324211
 30
0.0
 10
92.113643
 20
426.019234
 30
0.0
  0
LWPOLYLINE
  5
121
100
AcDbEntity
  8
numpad_plate
 62
1
100
AcDbPolyline
 90
1
 70
1
 10
107.704193
 20
426.019234
 30
0.0
  0
SPLINE
  5
122
100
AcDbEntity
  8
numpad_plate
 62
1
100
AcDbSpline
 70
8
 71
3
 72
8
 73
4
 74
0
 40
0
 40
0
 40
0
 40
0
 40
1
 40
1
 40
1
 40
1
 10
92.113643
 20
426.019234
 30
0.0
 10
92.113643
 20
421.714256
 30
0.0
 10
95.603940
 20
418.223959
 30
0.0
 10
99.908918
 20
418.223959
 30
0.0
  0
SPLINE
  5
123
100
AcDbEntity
  8
numpad_plate
 62
1
100
AcDbSpline
 70
8
 71
3
 72
8
 73
4
 74
0
 40
0
 40
0
 40
0
 40
0
 40
1
 40
1
 40
1
 40
1
 10
189.908918
 20
426.019234
 30
0.0
 10
189.908918
 20
426.019234
 30
0.0
 10
189.908918
 20
426.019234
 30
0.0
 10
189.908918
 20
430.324211
 30
0.0
  0
SPLINE
  5
124
100
AcDbEntity
  8
numpad_plate
 62
1
100
AcDbSpline
 70
8
 71
3
 72
8
 73
4
 74
0
 40
0
 40
0
 40
0
 40
0
 40
1
 40
1
 40
1
 40
1
 10
189.908918
 20
430.324211
 30
0.0
 10
189.908918
 20
430.324211
 30
0.0
 10
186.418620
 20
433.814516
 30
0.0
 10
182.113643
 20
433.814516
 30
0.0
  0
LWPOLYLINE
  5
125
100
AcDbEntity
  8
numpad_plate
 62
1
100
AcDbPolyline
 90
1
 70
1
 10
92.113643
 20
426.019234
 30
0.0
  0
SPLINE
  5
126
100
AcDbEntity
  8
numpad_plate
 62
1
100
AcDbSpline
 70
8
 71
3
 72
8
 73
4
 74
0
 40
0
 40
0
 40
0
 40
0
 40
1
 40
1
 40
1
 40
1
 10
182.113643
 20
433.814516
 30
0.0
 10
177.808665
 20
433.814509
 30
0.0
 10
174.318368
 20
430.324211
 30
0.0
 10
174.318368
 20
426.019234
 30
0.0
  0
SPLINE
  5
127
100
AcDbEntity
  8
numpad_plate
 62
1
100
AcDbSpline
 70
8
 71
3
 72
8
 73
4
 74
0
 40
0
 40
0
 40
0
 40
0
 40
1
 40
1
 40
1
 40
1
 10
174.318368
 20
426.019234
 30
0.0
 10
174.318368
 20
426.019234
 30
0.0
 10
174.318368
 20
426.019234
 30
0.0
 10
174.318368
 20
421.714256
 30
0.0
  0
SPLINE
  5
128
100
AcDbEntity
  8
numpad_plate
 62
1
100
AcDbSpline
 70
8
 71
3
 72
8
 73
4
 74
0
 40
0
 40
0
 40
0
 40
0
 40
1
 40
1
 40
1
 40
1
 10
174.318368
 20
421.714256
 30
0.0
 10
174.318368
 20
421.714256
 30
0.0
 10
177.808665
 20
418.223959
 30
0.0
 10
182.113643
 20
418.223959
 30
0.0
  0
SPLINE
  5
129
100
AcDbEntity
  8
numpad_plate
 62
1
100
AcDbSpline
 70
8
 71
3
 72
8
 73
4
 74
0
 40
0
 40
0
 40
0
 40
0
 40
1
 40
1
 40
1
 40
1
 10
182.113643
 20
418.223959
 30
0.0
 10
186.418620
 20
418.223959
 30
0.0
 10
189.908918
 20
421.714256
 30
0.0
 10
189.908918
 20
426.019234
 30
0.0
  0
LWPOLYLINE
  5
12a
100
AcDbEntity
  8
numpad_plate
 62
1
100
AcDbPolyline
 90
1
 70
1
 10
182.113643
 20
433.814516
 30
0.0
  0
SPLINE
  5
12b
100
AcDbEntity
  8
numpad_plate
 62
1
100
AcDbSpline
 70
8
 71
3
 72
8
 73
4
 74
0
 40
0
 40
0
 40
0
 40
0
 40
1
 40
1
 40
1
 40
1
 10
55.638769
 20
440.192464
 30
0.0
 10
44.568340
 20
440.192464
 30
0.0
 10
35.593981
 20
431.218115
 30
0.0
 10
35.593969
 20
420.147686
 30
0.0
  0
SPLINE
  5
12c
100
AcDbEntity
  8
numpad_plate
 62
1
100
AcDbSpline
 70
8
 71
3
 72
8
 73
4
 74
0
 40
0
 40
0
 40
0
 40
0
 40
1
 40
1
 40
1
 40
1
 10
311.017230
 20
420.147641
 30
0.0
 10
311.017236
 20
425.463857
 30
0.0
 10
308.905382
 20
430.562336
 30
0.0
 10
305.146252
 20
434.321470
 30
0.0
  0
SPLINE
  5
12d
100
AcDbEntity
  8
numpad_plate
 62
1
100
AcDbSpline
 70
8
 71
3
 72
8
 73
4
 74
0
 40
0
 40
0
 40
0
 40
0
 40
1
 40
1
 40
1
 40
1
 10
305.146252
 20
434.321470
 30
0.0
 10
301.387122
 20
438.080604
 30
0.0
 10
296.288645
 20
440.192464
 30
0.0
 10
290.972430
 20
440.192464
 30
0.0
  0
SPLINE
  5
12e
100
AcDbEntity
  8
numpad_plate
 62
1
100
AcDbSpline
 70
8
 71
3
 72
8
 73
4
 74
0
 40
0
 40
0
 40
0
 40
0
 40
1
 40
1
 40
1
 40
1
 10
35.593585
 20
63.386914
 30
0.0
 10
35.593565
 20
58.070689
 30
0.0
 10
37.705413
 20
52.972197
 30
0.0
 10
41.464544
 20
49.213051
 30
0.0
  0
SPLINE
  5
12f
100
AcDbEntity
  8
numpad_plate
 62
1
100
AcDbSpline
 70
8
 71
3
 72
8
 73
4
 74
0
 40
0
 40
0
 40
0
 40
0
 40
1
 40
1
 40
1
 40
1
 10
41.464544
 20
49.213051
 30
0.0
 10
45.223676
 20
45.453906
 30
0.0
 10
50.322160
 20
43.342039
 30
0.0
 10
55.638385
 20
43.342039
 30
0.0
  0
LWPOLYLINE
  5
130
100
AcDbEntity
  8
numpad_plate
 62
1
100
AcDbPolyline
 90
1
 70
1
 10
189.908918
 20
426.019234
 30
0.0
  0
SPLINE
  5
131
100
AcDbEntity
  8
numpad_plate
 62
1
100
AcDbSpline
 70
8
 71
3
 72
8
 73
4
 74
0
 40
0
 40
0
 40
0
 40
0
 40
1
 40
1
 40
1
 40
1
 10
290.972055
 20
43.342039
 30
0.0
 10
296.288266
 20
43.342039
 30
0.0
 10
301.386740
 20
45.453896
 30
0.0
 10
305.145869
 20
49.213025
 30
0.0
  0
SPLINE
  5
132
100
AcDbEntity
  8
numpad_plate
 62
1
100
AcDbSpline
 70
8
 71
3
 72
8
 73
4
 74
0
 40
0
 40
0
 40
0
 40
0
 40
1
 40
1
 40
1
 40
1
 10
305.145869
 20
49.213025
 30
0.0
 10
308.904998
 20
52.972154
 30
0.0
 10
311.016855
 20
58.070627
 30
0.0
 10
311.016855
 20
63.386839
 30
0.0
  0
SPLINE
  5
133
100
AcDbEntity
  8
numpad_plate
 62
1
100
AcDbSpline
 70
8
 71
3
 72
8
 73
4
 74
0
 40
0
 40
0
 40
0
 40
0
 40
1
 40
1
 40
1
 40
1
 10
302.557118
 20
423.937474
 30
0.0
 10
302.557118
 20
423.937474
 30
0.0
 10
302.557118
 20
423.937474
 30
0.0
 10
302.557118
 20
428.242451
 30
0.0
  0
SPLINE
  5
134
100
AcDbEntity
  8
numpad_plate
 62
1
100
AcDbSpline
 70
8
 71
3
 72
8
 73
4
 74
0
 40
0
 40
0
 40
0
 40
0
 40
1
 40
1
 40
1
 40
1
 10
302.557118
 20
428.242451
 30
0.0
 10
302.557118
 20
428.242451
 30
0.0
 10
299.066812
 20
431.732749
 30
0.0
 10
294.761835
 20
431.732749
 30
0.0
  0
LWPOLYLINE
  5
135
100
AcDbEntity
  8
numpad_plate
 62
1
100
AcDbPolyline
 90
2
 70
0
 10
55.638769
 20
440.192464
 30
0.0
 10
290.972430
 20
440.192464
 30
0.0
  0
SPLINE
  5
136
100
AcDbEntity
  8
numpad_plate
 62
1
100
AcDbSpline
 70
8
 71
3
 72
8
 73
4
 74
0
 40
0
 40
0
 40
0
 40
0
 40
1
 40
1
 40
1
 40
1
 10
294.761835
 20
431.732749
 30
0.0
 10
290.456865
 20
431.732749
 30
0.0
 10
286.966567
 20
428.242451
 30
0.0
 10
286.966567
 20
423.937474
 30
0.0
  0
SPLINE
  5
137
100
AcDbEntity
  8
numpad_plate
 62
1
100
AcDbSpline
 70
8
 71
3
 72
8
 73
4
 74
0
 40
0
 40
0
 40
0
 40
0
 40
1
 40
1
 40
1
 40
1
 10
286.966567
 20
423.937474
 30
0.0
 10
286.966567
 20
423.937474
 30
0.0
 10
286.966567
 20
423.937474
 30
0.0
 10
286.966567
 20
419.632496
 30
0.0
  0
SPLINE
  5
138
100
AcDbEntity
  8
numpad_plate
 62
1
100
AcDbSpline
 70
8
 71
3
 72
8
 73
4
 74
0
 40
0
 40
0
 40
0
 40
0
 40
1
 40
1
 40
1
 40
1
 10
286.966567
 20
419.632496
 30
0.0
 10
286.966567
 20
419.632496
 30
0.0
 10
290.456865
 20
416.142199
 30
0.0
 10
294.761835
 20
416.142199
 30
0.0
  0
SPLINE
  5
139
100
AcDbEntity
  8
numpad_plate
 62
1
100
AcDbSpline
 70
8
 71
3
 72
8
 73
4
 74
0
 40
0
 40
0
 40
0
 40
0
 40
1
 40
1
 40
1
 40
1
 10
294.761835
 20
416.142199
 30
0.0
 10
299.066813
 20
416.142199
 30
0.0
 10
302.557118
 20
419.632496
 30
0.0
 10
302.557118
 20
423.937474
 30
0.0
  0
LWPOLYLINE
  5
13a
100
AcDbEntity
  8
numpad_plate
 62
1
100
AcDbPolyline
 90
1
 70
1
 10
294.761835
 20
431.732749
 30
0.0
  0
LWPOLYLINE
  5
13b
100
AcDbEntity
  8
numpad_plate
 62
1
100
AcDbPolyline
 90
1
 70
1
 10
302.557118
 20
423.937474
 30
0.0
  0
LWPOLYLINE
  5
13c
100
AcDbEntity
  8
numpad_base
 62
1
100
AcDbPolyline
 90
2
 70
0
 10
35.592884
 20
420.147686
 30
0.0
 10
35.592500
 20
63.386914
 30
0.0
  0
LWPOLYLINE
  5
13d
100
AcDbEntity
  8
numpad_base
 62
1
100
AcDbPolyline
 90
2
 70
0
 10
55.638282
 20
43.342039
 30
0.0
 10
115.648462
 20
43.342039
 30
0.0
  0
LWPOLYLINE
  5
13e
100
AcDbEntity
  8
numpad_base
 62
1
100
AcDbPolyline
 90
2
 70
0
 10
166.444095
 20
43.342039
 30
0.0
 10
290.971942
 20
43.342039
 30
0.0
  0
SPLINE
  5
13f
100
AcDbEntity
  8
numpad_base
 62
1
100
AcDbSpline
 70
8
 71
3
 72
8
 73
4
 74
0
 40
0
 40
0
 40
0
 40
0
 40
1
 40
1
 40
1
 40
1
 10
570.187740
 20
51.371614
 30
0.0
 10
574.492718
 20
51.371614
 30
0.0
 10
577.983023
 20
54.861889
 30
0.0
 10
577.983023
 20
59.166889
 30
0.0
  0
LWPOLYLINE
  5
140
100
AcDbEntity
  8
numpad_base
 62
1
100
AcDbPolyline
 90
2
 70
0
 10
311.022007
 20
419.716916
 30
0.0
 10
311.021617
 20
62.956114
 30
0.0
  0
SPLINE
  5
141
100
AcDbEntity
  8
numpad_base
 62
1
100
AcDbSpline
 70
8
 71
3
 72
8
 73
4
 74
0
 40
0
 40
0
 40
0
 40
0
 40
1
 40
1
 40
1
 40
1
 10
577.983023
 20
59.166889
 30
0.0
 10
577.983023
 20
63.471814
 30
0.0
 10
574.492718
 20
66.962164
 30
0.0
 10
570.187740
 20
66.962164
 30
0.0
  0
SPLINE
  5
142
100
AcDbEntity
  8
numpad_base
 62
1
100
AcDbSpline
 70
8
 71
3
 72
8
 73
4
 74
0
 40
0
 40
0
 40
0
 40
0
 40
1
 40
1
 40
1
 40
1
 10
570.187740
 20
66.962164
 30
0.0
 10
570.187740
 20
66.962164
 30
0.0
 10
570.187740
 20
66.962164
 30
0.0
 10
565.882770
 20
66.962164
 30
0.0
  0
SPLINE
  5
143
100
AcDbEntity
  8
numpad_base
 62
1
100
AcDbSpline
 70
8
 71
3
 72
8
 73
4
 74
0
 40
0
 40
0
 40
0
 40
0
 40
1
 40
1
 40
1
 40
1
 10
565.882770
 20
66.962164
 30
0.0
 10
565.882770
 20
66.962164
 30
0.0
 10
562.392465
 20
63.471814
 30
0.0
 10
562.392465
 20
59.166889
 30
0.0
  0
LWPOLYLINE
  5
144
100
AcDbEntity
  8
numpad_base
 62
1
100
AcDbPolyline
 90
1
 70
1
 10
577.983023
 20
59.166889
 30
0.0
  0
SPLINE
  5
145
100
AcDbEntity
  8
numpad_base
 62
1
100
AcDbSpline
 70
8
 71
3
 72
8
 73
4
 74
0
 40
0
 40
0
 40
0
 40
0
 40
1
 40
1
 40
1
 40
1
 10
562.392465
 20
59.166889
 30
0.0
 10
562.392465
 20
54.861889
 30
0.0
 10
565.882770
 20
51.371614
 30
0.0
 10
570.187740
 20
51.371614
 30
0.0
  0
SPLINE
  5
146
100
AcDbEntity
  8
numpad_base
 62
1
100
AcDbSpline
 70
8
 71
3
 72
8
 73
4
 74
0
 40
0
 40
0
 40
0
 40
0
 40
1
 40
1
 40
1
 40
1
 10
327.274972
 20
51.371614
 30
0.0
 10
331.579943
 20
51.371614
 30
0.0
 10
335.070247
 20
54.861889
 30
0.0
 10
335.070247
 20
59.166889
 30
0.0
  0
LWPOLYLINE
  5
147
100
AcDbEntity
  8
numpad_base
 62
1
100
AcDbPolyline
 90
1
 70
1
 10
562.392465
 20
59.166889
 30
0.0
  0
SPLINE
  5
148
100
AcDbEntity
  8
numpad_base
 62
1
100
AcDbSpline
 70
8
 71
3
 72
8
 73
4
 74
0
 40
0
 40
0
 40
0
 40
0
 40
1
 40
1
 40
1
 40
1
 10
335.070247
 20
59.166889
 30
0.0
 10
335.070247
 20
63.471814
 30
0.0
 10
331.579943
 20
66.962164
 30
0.0
 10
327.274972
 20
66.962164
 30
0.0
  0
SPLINE
  5
149
100
AcDbEntity
  8
numpad_base
 62
1
100
AcDbSpline
 70
8
 71
3
 72
8
 73
4
 74
0
 40
0
 40
0
 40
0
 40
0
 40
1
 40
1
 40
1
 40
1
 10
327.274972
 20
66.962164
 30
0.0
 10
327.274972
 20
66.962164
 30
0.0
 10
327.274965
 20
66.962164
 30
0.0
 10
322.969995
 20
66.962164
 30
0.0
  0
SPLINE
  5
14a
100
AcDbEntity
  8
numpad_base
 62
1
100
AcDbSpline
 70
8
 71
3
 72
8
 73
4
 74
0
 40
0
 40
0
 40
0
 40
0
 40
1
 40
1
 40
1
 40
1
 10
322.969995
 20
66.962164
 30
0.0
 10
322.969995
 20
66.962164
 30
0.0
 10
319.479690
 20
63.471814
 30
0.0
 10
319.479690
 20
59.166889
 30
0.0
  0
LWPOLYLINE
  5
14b
100
AcDbEntity
  8
numpad_base
 62
1
100
AcDbPolyline
 90
1
 70
1
 10
335.070247
 20
59.166889
 30
0.0
  0
SPLINE
  5
14c
100
AcDbEntity
  8
numpad_base
 62
1
100
AcDbSpline
 70
8
 71
3
 72
8
 73
4
 74
0
 40
0
 40
0
 40
0
 40
0
 40
1
 40
1
 40
1
 40
1
 10
319.479690
 20
59.166889
 30
0.0
 10
319.479690
 20
54.861889
 30
0.0
 10
322.969995
 20
51.371614
 30
0.0
 10
327.274972
 20
51.371614
 30
0.0
  0
SPLINE
  5
14d
100
AcDbEntity
  8
numpad_base
 62
1
100
AcDbSpline
 70
8
 71
3
 72
8
 73
4
 74
0
 40
0
 40
0
 40
0
 40
0
 40
1
 40
1
 40
1
 40
1
 10
570.187740
 20
415.711429
 30
0.0
 10
574.492718
 20
415.711429
 30
0.0
 10
577.983023
 20
419.201726
 30
0.0
 10
577.983023
 20
423.506704
 30
0.0
  0
LWPOLYLINE
  5
14e
100
AcDbEntity
  8
numpad_base
 62
1
100
AcDbPolyline
 90
1
 70
1
 10
319.479690
 20
59.166889
 30
0.0
  0
SPLINE
  5
14f
100
AcDbEntity
  8
numpad_base
 62
1
100
AcDbSpline
 70
8
 71
3
 72
8
 73
4
 74
0
 40
0
 40
0
 40
0
 40
0
 40
1
 40
1
 40
1
 40
1
 10
577.983023
 20
423.506704
 30
0.0
 10
577.983023
 20
427.811681
 30
0.0
 10
574.492718
 20
431.301979
 30
0.0
 10
570.187740
 20
431.301979
 30
0.0
  0
SPLINE
  5
150
100
AcDbEntity
  8
numpad_base
 62
1
100
AcDbSpline
 70
8
 71
3
 72
8
 73
4
 74
0
 40
0
 40
0
 40
0
 40
0
 40
1
 40
1
 40
1
 40
1
 10
570.187740
 20
431.301979
 30
0.0
 10
570.187740
 20
431.301979
 30
0.0
 10
570.187740
 20
431.301979
 30
0.0
 10
565.882770
 20
431.301979
 30
0.0
  0
SPLINE
  5
151
100
AcDbEntity
  8
numpad_base
 62
1
100
AcDbSpline
 70
8
 71
3
 72
8
 73
4
 74
0
 40
0
 40
0
 40
0
 40
0
 40
1
 40
1
 40
1
 40
1
 10
565.882770
 20
431.301979
 30
0.0
 10
565.882770
 20
431.301979
 30
0.0
 10
562.392465
 20
427.811681
 30
0.0
 10
562.392465
 20
423.506704
 30
0.0
  0
LWPOLYLINE
  5
152
100
AcDbEntity
  8
numpad_base
 62
1
100
AcDbPolyline
 90
1
 70
1
 10
577.983023
 20
423.506704
 30
0.0
  0
SPLINE
  5
153
100
AcDbEntity
  8
numpad_base
 62
1
100
AcDbSpline
 70
8
 71
3
 72
8
 73
4
 74
0
 40
0
 40
0
 40
0
 40
0
 40
1
 40
1
 40
1
 40
1
 10
562.392465
 20
423.506704
 30
0.0
 10
562.392465
 20
419.201726
 30
0.0
 10
565.882770
 20
415.711429
 30
0.0
 10
570.187740
 20
415.711429
 30
0.0
  0
SPLINE
  5
154
100
AcDbEntity
  8
numpad_base
 62
1
100
AcDbSpline
 70
8
 71
3
 72
8
 73
4
 74
0
 40
0
 40
0
 40
0
 40
0
 40
1
 40
1
 40
1
 40
1
 10
325.190940
 20
339.475046
 30
0.0
 10
329.495918
 20
339.475046
 30
0.0
 10
332.986215
 20
342.965344
 30
0.0
 10
332.986215
 20
347.270321
 30
0.0
  0
LWPOLYLINE
  5
155
100
AcDbEntity
  8
numpad_base
 62
1
100
AcDbPolyline
 90
1
 70
1
 10
562.392465
 20
423.506704
 30
0.0
  0
SPLINE
  5
156
100
AcDbEntity
  8
numpad_base
 62
1
100
AcDbSpline
 70
8
 71
3
 72
8
 73
4
 74
0
 40
0
 40
0
 40
0
 40
0
 40
1
 40
1
 40
1
 40
1
 10
332.986215
 20
347.270321
 30
0.0
 10
332.986215
 20
351.575299
 30
0.0
 10
329.495918
 20
355.065596
 30
0.0
 10
325.190940
 20
355.065596
 30
0.0
  0
SPLINE
  5
157
100
AcDbEntity
  8
numpad_base
 62
1
100
AcDbSpline
 70
8
 71
3
 72
8
 73
4
 74
0
 40
0
 40
0
 40
0
 40
0
 40
1
 40
1
 40
1
 40
1
 10
325.190940
 20
355.065596
 30
0.0
 10
325.190940
 20
355.065596
 30
0.0
 10
325.190940
 20
355.065596
 30
0.0
 10
320.885963
 20
355.065596
 30
0.0
  0
SPLINE
  5
158
100
AcDbEntity
  8
numpad_base
 62
1
100
AcDbSpline
 70
8
 71
3
 72
8
 73
4
 74
0
 40
0
 40
0
 40
0
 40
0
 40
1
 40
1
 40
1
 40
1
 10
320.885963
 20
355.065596
 30
0.0
 10
320.885963
 20
355.065596
 30
0.0
 10
317.395665
 20
351.575299
 30
0.0
 10
317.395665
 20
347.270321
 30
0.0
  0
LWPOLYLINE
  5
159
100
AcDbEntity
  8
numpad_base
 62
1
100
AcDbPolyline
 90
1
 70
1
 10
332.986215
 20
347.270321
 30
0.0
  0
SPLINE
  5
15a
100
AcDbEntity
  8
numpad_base
 62
1
100
AcDbSpline
 70
8
 71
3
 72
8
 73
4
 74
0
 40
0
 40
0
 40
0
 40
0
 40
1
 40
1
 40
1
 40
1
 10
317.395665
 20
347.270321
 30
0.0
 10
317.395665
 20
342.965344
 30
0.0
 10
320.885963
 20
339.475046
 30
0.0
 10
325.190940
 20
339.475046
 30
0.0
  0
SPLINE
  5
15b
100
AcDbEntity
  8
numpad_base
 62
1
100
AcDbSpline
 70
8
 71
3
 72
8
 73
4
 74
0
 40
0
 40
0
 40
0
 40
0
 40
1
 40
1
 40
1
 40
1
 10
375.334823
 20
417.793189
 30
0.0
 10
379.639800
 20
417.793189
 30
0.0
 10
383.130098
 20
421.283486
 30
0.0
 10
383.130098
 20
425.588464
 30
0.0
  0
LWPOLYLINE
  5
15c
100
AcDbEntity
  8
numpad_base
 62
1
100
AcDbPolyline
 90
1
 70
1
 10
317.395665
 20
347.270321
 30
0.0
  0
SPLINE
  5
15d
100
AcDbEntity
  8
numpad_base
 62
1
100
AcDbSpline
 70
8
 71
3
 72
8
 73
4
 74
0
 40
0
 40
0
 40
0
 40
0
 40
1
 40
1
 40
1
 40
1
 10
383.130097
 20
425.588464
 30
0.0
 10
383.130097
 20
429.893441
 30
0.0
 10
379.639800
 20
433.383739
 30
0.0
 10
375.334822
 20
433.383739
 30
0.0
  0
SPLINE
  5
15e
100
AcDbEntity
  8
numpad_base
 62
1
100
AcDbSpline
 70
8
 71
3
 72
8
 73
4
 74
0
 40
0
 40
0
 40
0
 40
0
 40
1
 40
1
 40
1
 40
1
 10
375.334823
 20
433.383739
 30
0.0
 10
375.334823
 20
433.383739
 30
0.0
 10
375.334823
 20
433.383739
 30
0.0
 10
371.029845
 20
433.383739
 30
0.0
  0
SPLINE
  5
15f
100
AcDbEntity
  8
numpad_base
 62
1
100
AcDbSpline
 70
8
 71
3
 72
8
 73
4
 74
0
 40
0
 40
0
 40
0
 40
0
 40
1
 40
1
 40
1
 40
1
 10
371.029845
 20
433.383739
 30
0.0
 10
371.029845
 20
433.383739
 30
0.0
 10
367.539548
 20
429.893441
 30
0.0
 10
367.539548
 20
425.588464
 30
0.0
  0
LWPOLYLINE
  5
160
100
AcDbEntity
  8
numpad_base
 62
1
100
AcDbPolyline
 90
1
 70
1
 10
383.130097
 20
425.588464
 30
0.0
  0
SPLINE
  5
161
100
AcDbEntity
  8
numpad_base
 62
1
100
AcDbSpline
 70
8
 71
3
 72
8
 73
4
 74
0
 40
0
 40
0
 40
0
 40
0
 40
1
 40
1
 40
1
 40
1
 10
367.539548
 20
425.588464
 30
0.0
 10
367.539548
 20
421.283486
 30
0.0
 10
371.029845
 20
417.793189
 30
0.0
 10
375.334823
 20
417.793189
 30
0.0
  0
SPLINE
  5
162
100
AcDbEntity
  8
numpad_base
 62
1
100
AcDbSpline
 70
8
 71
3
 72
8
 73
4
 74
0
 40
0
 40
0
 40
0
 40
0
 40
1
 40
1
 40
1
 40
1
 10
457.539548
 20
417.793189
 30
0.0
 10
461.844517
 20
417.793189
 30
0.0
 10
465.334822
 20
421.283486
 30
0.0
 10
465.334822
 20
425.588464
 30
0.0
  0
LWPOLYLINE
  5
163
100
AcDbEntity
  8
numpad_base
 62
1
100
AcDbPolyline
 90
1
 70
1
 10
367.539548
 20
425.588464
 30
0.0
  0
SPLINE
  5
164
100
AcDbEntity
  8
numpad_base
 62
1
100
AcDbSpline
 70
8
 71
3
 72
8
 73
4
 74
0
 40
0
 40
0
 40
0
 40
0
 40
1
 40
1
 40
1
 40
1
 10
465.334822
 20
425.588464
 30
0.0
 10
465.334822
 20
429.893441
 30
0.0
 10
461.844517
 20
433.383739
 30
0.0
 10
457.539548
 20
433.383739
 30
0.0
  0
SPLINE
  5
165
100
AcDbEntity
  8
numpad_base
 62
1
100
AcDbSpline
 70
8
 71
3
 72
8
 73
4
 74
0
 40
0
 40
0
 40
0
 40
0
 40
1
 40
1
 40
1
 40
1
 10
457.539548
 20
433.383739
 30
0.0
 10
457.539548
 20
433.383739
 30
0.0
 10
457.539548
 20
433.383739
 30
0.0
 10
453.234570
 20
433.383739
 30
0.0
  0
SPLINE
  5
166
100
AcDbEntity
  8
numpad_base
 62
1
100
AcDbSpline
 70
8
 71
3
 72
8
 73
4
 74
0
 40
0
 40
0
 40
0
 40
0
 40
1
 40
1
 40
1
 40
1
 10
453.234570
 20
433.383739
 30
0.0
 10
453.234570
 20
433.383739
 30
0.0
 10
449.744273
 20
429.893441
 30
0.0
 10
449.744273
 20
425.588464
 30
0.0
  0
LWPOLYLINE
  5
167
100
AcDbEntity
  8
numpad_base
 62
1
100
AcDbPolyline
 90
1
 70
1
 10
465.334822
 20
425.588464
 30
0.0
  0
SPLINE
  5
168
100
AcDbEntity
  8
numpad_base
 62
1
100
AcDbSpline
 70
8
 71
3
 72
8
 73
4
 74
0
 40
0
 40
0
 40
0
 40
0
 40
1
 40
1
 40
1
 40
1
 10
449.744273
 20
425.588464
 30
0.0
 10
449.744273
 20
421.283486
 30
0.0
 10
453.234570
 20
417.793189
 30
0.0
 10
457.539548
 20
417.793189
 30
0.0
  0
SPLINE
  5
169
100
AcDbEntity
  8
numpad_base
 62
1
100
AcDbSpline
 70
8
 71
3
 72
8
 73
4
 74
0
 40
0
 40
0
 40
0
 40
0
 40
1
 40
1
 40
1
 40
1
 10
331.064670
 20
439.761694
 30
0.0
 10
319.994244
 20
439.761690
 30
0.0
 10
311.019890
 20
430.787342
 30
0.0
 10
311.019878
 20
419.716916
 30
0.0
  0
LWPOLYLINE
  5
16a
100
AcDbEntity
  8
numpad_base
 62
1
100
AcDbPolyline
 90
1
 70
1
 10
449.744273
 20
425.588464
 30
0.0
  0
SPLINE
  5
16b
100
AcDbEntity
  8
numpad_base
 62
1
100
AcDbSpline
 70
8
 71
3
 72
8
 73
4
 74
0
 40
0
 40
0
 40
0
 40
0
 40
1
 40
1
 40
1
 40
1
 10
586.443135
 20
419.716871
 30
0.0
 10
586.443141
 20
425.033087
 30
0.0
 10
584.331287
 20
430.131566
 30
0.0
 10
580.572157
 20
433.890700
 30
0.0
  0
SPLINE
  5
16c
100
AcDbEntity
  8
numpad_base
 62
1
100
AcDbSpline
 70
8
 71
3
 72
8
 73
4
 74
0
 40
0
 40
0
 40
0
 40
0
 40
1
 40
1
 40
1
 40
1
 10
580.572157
 20
433.890700
 30
0.0
 10
576.813027
 20
437.649834
 30
0.0
 10
571.714550
 20
439.761694
 30
0.0
 10
566.398335
 20
439.761694
 30
0.0
  0
LWPOLYLINE
  5
16d
100
AcDbEntity
  8
numpad_base
 62
1
100
AcDbPolyline
 90
2
 70
0
 10
586.443135
 20
419.716871
 30
0.0
 10
586.442760
 20
62.956114
 30
0.0
  0
SPLINE
  5
16e
100
AcDbEntity
  8
numpad_base
 62
1
100
AcDbSpline
 70
8
 71
3
 72
8
 73
4
 74
0
 40
0
 40
0
 40
0
 40
0
 40
1
 40
1
 40
1
 40
1
 10
405.474855
 20
425.361694
 30
0.0
 10
405.474855
 20
429.180811
 30
0.0
 10
403.957716
 20
432.843508
 30
0.0
 10
401.257193
 20
435.544031
 30
0.0
  0
SPLINE
  5
16f
100
AcDbEntity
  8
numpad_base
 62
1
100
AcDbSpline
 70
8
 71
3
 72
8
 73
4
 74
0
 40
0
 40
0
 40
0
 40
0
 40
1
 40
1
 40
1
 40
1
 10
401.257193
 20
435.544031
 30
0.0
 10
398.556669
 20
438.244555
 30
0.0
 10
394.893972
 20
439.761694
 30
0.0
 10
391.074855
 20
439.761694
 30
0.0
  0
LWPOLYLINE
  5
170
100
AcDbEntity
  8
numpad_base
 62
1
100
AcDbPolyline
 90
2
 70
0
 10
331.064670
 20
439.761694
 30
0.0
 10
391.074855
 20
439.761694
 30
0.0
  0
SPLINE
  5
171
100
AcDbEntity
  8
numpad_base
 62
1
100
AcDbSpline
 70
8
 71
3
 72
8
 73
4
 74
0
 40
0
 40
0
 40
0
 40
0
 40
1
 40
1
 40
1
 40
1
 10
311.019488
 20
62.956114
 30
0.0
 10
311.019488
 20
57.639902
 30
0.0
 10
313.131344
 20
52.541429
 30
0.0
 10
316.890473
 20
48.782300
 30
0.0
  0
SPLINE
  5
172
100
AcDbEntity
  8
numpad_base
 62
1
100
AcDbSpline
 70
8
 71
3
 72
8
 73
4
 74
0
 40
0
 40
0
 40
0
 40
0
 40
1
 40
1
 40
1
 40
1
 10
316.890473
 20
48.782300
 30
0.0
 10
320.649603
 20
45.023171
 30
0.0
 10
325.748076
 20
42.911314
 30
0.0
 10
331.064288
 20
42.911314
 30
0.0
  0
SPLINE
  5
173
100
AcDbEntity
  8
numpad_base
 62
1
100
AcDbSpline
 70
8
 71
3
 72
8
 73
4
 74
0
 40
0
 40
0
 40
0
 40
0
 40
1
 40
1
 40
1
 40
1
 10
566.397960
 20
42.911314
 30
0.0
 10
571.714171
 20
42.911314
 30
0.0
 10
576.812645
 20
45.023171
 30
0.0
 10
580.571774
 20
48.782300
 30
0.0
  0
SPLINE
  5
174
100
AcDbEntity
  8
numpad_base
 62
1
100
AcDbSpline
 70
8
 71
3
 72
8
 73
4
 74
0
 40
0
 40
0
 40
0
 40
0
 40
1
 40
1
 40
1
 40
1
 10
580.571774
 20
48.782300
 30
0.0
 10
584.330903
 20
52.541429
 30
0.0
 10
586.442760
 20
57.639902
 30
0.0
 10
586.442760
 20
62.956114
 30
0.0
  0
LWPOLYLINE
  5
175
100
AcDbEntity
  8
numpad_base
 62
1
100
AcDbPolyline
 90
2
 70
0
 10
441.870488
 20
439.761694
 30
0.0
 10
566.398335
 20
439.761694
 30
0.0
  0
LWPOLYLINE
  5
176
100
AcDbEntity
  8
numpad_base
 62
1
100
AcDbPolyline
 90
2
 70
0
 10
405.474855
 20
419.723201
 30
0.0
 10
427.470487
 20
419.723201
 30
0.0
  0
LWPOLYLINE
  5
177
100
AcDbEntity
  8
numpad_base
 62
1
100
AcDbPolyline
 90
2
 70
0
 10
405.474855
 20
419.723201
 30
0.0
 10
405.474855
 20
425.361694
 30
0.0
  0
SPLINE
  5
178
100
AcDbEntity
  8
numpad_base
 62
1
100
AcDbSpline
 70
8
 71
3
 72
8
 73
4
 74
0
 40
0
 40
0
 40
0
 40
0
 40
1
 40
1
 40
1
 40
1
 10
441.870488
 20
439.761694
 30
0.0
 10
438.051370
 20
439.761694
 30
0.0
 10
434.388674
 20
438.244555
 30
0.0
 10
431.688150
 20
435.544031
 30
0.0
  0
SPLINE
  5
179
100
AcDbEntity
  8
numpad_base
 62
1
100
AcDbSpline
 70
8
 71
3
 72
8
 73
4
 74
0
 40
0
 40
0
 40
0
 40
0
 40
1
 40
1
 40
1
 40
1
 10
431.688150
 20
435.544031
 30
0.0
 10
428.987626
 20
432.843508
 30
0.0
 10
427.470487
 20
429.180811
 30
0.0
 10
427.470487
 20
425.361694
 30
0.0
  0
LWPOLYLINE
  5
17a
100
AcDbEntity
  8
numpad_base
 62
1
100
AcDbPolyline
 90
2
 70
0
 10
427.470487
 20
419.723201
 30
0.0
 10
427.470487
 20
425.361694
 30
0.0
  0
LWPOLYLINE
  5
17b
100
AcDbEntity
  8
Cuts
 62
1
100
AcDbPolyline
 90
2
 70
0
 10
99.539790
 20
119.816861
 30
0.0
 10
139.139633
 20
119.816861
 30
0.0
  0
LWPOLYLINE
  5
17c
100
AcDbEntity
  8
Cuts
 62
1
100
AcDbPolyline
 90
2
 70
0
 10
148.499595
 20
117.656869
 30
0.0
 10
157.859557
 20
117.656869
 30
0.0
  0
LWPOLYLINE
  5
17d
100
AcDbEntity
  8
Cuts
 62
1
100
AcDbPolyline
 90
2
 70
0
 10
157.859557
 20
78.056989
 30
0.0
 10
148.499595
 20
78.056989
 30
0.0
  0
LWPOLYLINE
  5
17e
100
AcDbEntity
  8
Cuts
 62
1
100
AcDbPolyline
 90
2
 70
0
 10
139.139633
 20
80.216989
 30
0.0
 10
99.539790
 20
80.216989
 30
0.0
  0
LWPOLYLINE
  5
17f
100
AcDbEntity
  8
Cuts
 62
1
100
AcDbPolyline
 90
2
 70
0
 10
90.179827
 20
78.056989
 30
0.0
 10
80.819865
 20
78.056989
 30
0.0
  0
LWPOLYLINE
  5
180
100
AcDbEntity
  8
Cuts
 62
1
100
AcDbPolyline
 90
2
 70
0
 10
80.819865
 20
117.656869
 30
0.0
 10
90.179828
 20
117.656869
 30
0.0
  0
LWPOLYLINE
  5
181
100
AcDbEntity
  8
Layer_1
 62
1
100
AcDbPolyline
 90
2
 70
0
 10
238.211475
 20
97.857221
 30
0.0
 10
273.059400
 20
97.857221
 30
0.0
  0
LWPOLYLINE
  5
182
100
AcDbEntity
  8
Layer_1
 62
1
100
AcDbPolyline
 90
2
 70
0
 10
238.211475
 20
88.497214
 30
0.0
 10
273.059400
 20
88.497214
 30
0.0
  0
LWPOLYLINE
  5
183
100
AcDbEntity
  8
Layer_1
 62
1
100
AcDbPolyline
 90
2
 70
0
 10
238.211475
 20
146.816839
 30
0.0
 10
270.827407
 20
146.816839
 30
0.0
  0
LWPOLYLINE
  5
184
100
AcDbEntity
  8
Layer_1
 62
1
100
AcDbPolyline
 90
2
 70
0
 10
270.827407
 20
107.217206
 30
0.0
 10
238.211475
 20
107.217206
 30
0.0
  0
LWPOLYLINE
  5
185
100
AcDbEntity
  8
Layer_1
 62
1
100
AcDbPolyline
 90
2
 70
0
 10
238.211475
 20
165.536809
 30
0.0
 10
273.059400
 20
165.536809
 30
0.0
  0
LWPOLYLINE
  5
186
100
AcDbEntity
  8
Layer_1
 62
1
100
AcDbPolyline
 90
2
 70
0
 10
238.211475
 20
156.176824
 30
0.0
 10
273.059400
 20
156.176824
 30
0.0
  0
LWPOLYLINE
  5
187
100
AcDbEntity
  8
Layer_1
 62
1
100
AcDbPolyline
 90
2
 70
0
 10
238.211475
 20
273.536591
 30
0.0
 10
273.059400
 20
273.536591
 30
0.0
  0
LWPOLYLINE
  5
188
100
AcDbEntity
  8
Layer_1
 62
1
100
AcDbPolyline
 90
2
 70
0
 10
273.059400
 20
264.176606
 30
0.0
 10
238.211475
 20
264.176606
 30
0.0
  0
LWPOLYLINE
  5
189
100
AcDbEntity
  8
Layer_1
 62
1
100
AcDbPolyline
 90
2
 70
0
 10
238.211475
 20
215.216989
 30
0.0
 10
270.827407
 20
215.216989
 30
0.0
  0
LWPOLYLINE
  5
18a
100
AcDbEntity
  8
Layer_1
 62
1
100
AcDbPolyline
 90
2
 70
0
 10
238.211475
 20
254.816629
 30
0.0
 10
270.827407
 20
254.816629
 30
0.0
  0
LWPOLYLINE
  5
18b
100
AcDbEntity
  8
Layer_1
 62
1
100
AcDbPolyline
 90
2
 70
0
 10
238.211475
 20
205.857011
 30
0.0
 10
273.059400
 20
205.857011
 30
0.0
  0
LWPOLYLINE
  5
18c
100
AcDbEntity
  8
Layer_1
 62
1
100
AcDbPolyline
 90
2
 70
0
 10
238.211475
 20
196.497026
 30
0.0
 10
273.059400
 20
196.497026
 30
0.0
  0
LWPOLYLINE
  5
18d
100
AcDbEntity
  8
Layer_1
 62
1
100
AcDbPolyline
 90
3
 70
0
 10
180.539587
 20
80.216689
 30
0.0
 10
180.539587
 20
119.816614
 30
0.0
 10
220.139512
 20
119.816614
 30
0.0
  0
LWPOLYLINE
  5
18e
100
AcDbEntity
  8
Layer_1
 62
1
100
AcDbPolyline
 90
2
 70
0
 10
220.139512
 20
80.216689
 30
0.0
 10
220.139512
 20
119.816614
 30
0.0
  0
LWPOLYLINE
  5
18f
100
AcDbEntity
  8
Layer_1
 62
1
100
AcDbPolyline
 90
2
 70
0
 10
220.139512
 20
80.216689
 30
0.0
 10
180.539587
 20
80.216689
 30
0.0
  0
LWPOLYLINE
  5
190
100
AcDbEntity
  8
Layer_1
 62
1
100
AcDbPolyline
 90
3
 70
0
 10
72.539805
 20
134.216584
 30
0.0
 10
72.539805
 20
173.816501
 30
0.0
 10
112.139730
 20
173.816501
 30
0.0
  0
LWPOLYLINE
  5
191
100
AcDbEntity
  8
Layer_1
 62
1
100
AcDbPolyline
 90
2
 70
0
 10
112.139730
 20
134.216584
 30
0.0
 10
112.139730
 20
173.816501
 30
0.0
  0
LWPOLYLINE
  5
192
100
AcDbEntity
  8
Layer_1
 62
1
100
AcDbPolyline
 90
2
 70
0
 10
112.139730
 20
134.216584
 30
0.0
 10
72.539805
 20
134.216584
 30
0.0
  0
LWPOLYLINE
  5
193
100
AcDbEntity
  8
Layer_1
 62
1
100
AcDbPolyline
 90
3
 70
0
 10
72.539805
 20
188.216194
 30
0.0
 10
72.539805
 20
227.816111
 30
0.0
 10
112.139730
 20
227.816111
 30
0.0
  0
LWPOLYLINE
  5
194
100
AcDbEntity
  8
Layer_1
 62
1
100
AcDbPolyline
 90
2
 70
0
 10
112.139730
 20
188.216194
 30
0.0
 10
112.139730
 20
227.816111
 30
0.0
  0
LWPOLYLINE
  5
195
100
AcDbEntity
  8
Layer_1
 62
1
100
AcDbPolyline
 90
2
 70
0
 10
112.139730
 20
188.216194
 30
0.0
 10
72.539805
 20
188.216194
 30
0.0
  0
LWPOLYLINE
  5
196
100
AcDbEntity
  8
Layer_1
 62
1
100
AcDbPolyline
 90
3
 70
0
 10
72.539805
 20
242.215796
 30
0.0
 10
72.539805
 20
281.815721
 30
0.0
 10
112.139723
 20
281.815721
 30
0.0
  0
LWPOLYLINE
  5
197
100
AcDbEntity
  8
Layer_1
 62
1
100
AcDbPolyline
 90
2
 70
0
 10
112.139723
 20
242.215796
 30
0.0
 10
112.139723
 20
281.815721
 30
0.0
  0
LWPOLYLINE
  5
198
100
AcDbEntity
  8
Layer_1
 62
1
100
AcDbPolyline
 90
2
 70
0
 10
112.139723
 20
242.215796
 30
0.0
 10
72.539805
 20
242.215796
 30
0.0
  0
LWPOLYLINE
  5
199
100
AcDbEntity
  8
Layer_1
 62
1
100
AcDbPolyline
 90
3
 70
0
 10
72.539805
 20
296.215406
 30
0.0
 10
72.539805
 20
335.815324
 30
0.0
 10
112.139723
 20
335.815324
 30
0.0
  0
LWPOLYLINE
  5
19a
100
AcDbEntity
  8
Layer_1
 62
1
100
AcDbPolyline
 90
2
 70
0
 10
112.139723
 20
296.215406
 30
0.0
 10
112.139723
 20
335.815324
 30
0.0
  0
LWPOLYLINE
  5
19b
100
AcDbEntity
  8
Layer_1
 62
1
100
AcDbPolyline
 90
2
 70
0
 10
112.139723
 20
296.215406
 30
0.0
 10
72.539805
 20
296.215406
 30
0.0
  0
LWPOLYLINE
  5
19c
100
AcDbEntity
  8
Layer_1
 62
1
100
AcDbPolyline
 90
5
 70
1
 10
126.539700
 20
335.815324
 30
0.0
 10
166.139618
 20
335.815324
 30
0.0
 10
166.139618
 20
296.215406
 30
0.0
 10
126.539700
 20
296.215406
 30
0.0
 10
126.539700
 20
335.815324
 30
0.0
  0
LWPOLYLINE
  5
19d
100
AcDbEntity
  8
Layer_1
 62
1
100
AcDbPolyline
 90
3
 70
0
 10
180.539587
 20
296.215406
 30
0.0
 10
180.539587
 20
335.815324
 30
0.0
 10
220.139512
 20
335.815324
 30
0.0
  0
LWPOLYLINE
  5
19e
100
AcDbEntity
  8
Layer_1
 62
1
100
AcDbPolyline
 90
2
 70
0
 10
220.139512
 20
296.215406
 30
0.0
 10
220.139512
 20
335.815324
 30
0.0
  0
LWPOLYLINE
  5
19f
100
AcDbEntity
  8
Layer_1
 62
1
100
AcDbPolyline
 90
2
 70
0
 10
220.139512
 20
296.215406
 30
0.0
 10
180.539587
 20
296.215406
 30
0.0
  0
LWPOLYLINE
  5
1a0
100
AcDbEntity
  8
Layer_1
 62
1
100
AcDbPolyline
 90
3
 70
0
 10
126.539700
 20
242.215796
 30
0.0
 10
126.539700
 20
281.815721
 30
0.0
 10
166.139618
 20
281.815721
 30
0.0
  0
LWPOLYLINE
  5
1a1
100
AcDbEntity
  8
Layer_1
 62
1
100
AcDbPolyline
 90
2
 70
0
 10
166.139617
 20
242.215796
 30
0.0
 10
166.139617
 20
281.815721
 30
0.0
  0
LWPOLYLINE
  5
1a2
100
AcDbEntity
  8
Layer_1
 62
1
100
AcDbPolyline
 90
2
 70
0
 10
166.139617
 20
242.215796
 30
0.0
 10
126.539700
 20
242.215796
 30
0.0
  0
LWPOLYLINE
  5
1a3
100
AcDbEntity
  8
Layer_1
 62
1
100
AcDbPolyline
 90
3
 70
0
 10
126.539700
 20
134.216584
 30
0.0
 10
126.539700
 20
173.816501
 30
0.0
 10
166.139618
 20
173.816501
 30
0.0
  0
LWPOLYLINE
  5
1a4
100
AcDbEntity
  8
Layer_1
 62
1
100
AcDbPolyline
 90
2
 70
0
 10
166.139617
 20
134.216584
 30
0.0
 10
166.139617
 20
173.816501
 30
0.0
  0
LWPOLYLINE
  5
1a5
100
AcDbEntity
  8
Layer_1
 62
1
100
AcDbPolyline
 90
2
 70
0
 10
166.139617
 20
134.216584
 30
0.0
 10
126.539700
 20
134.216584
 30
0.0
  0
LWPOLYLINE
  5
1a6
100
AcDbEntity
  8
Layer_1
 62
1
100
AcDbPolyline
 90
3
 70
0
 10
180.539587
 20
134.216299
 30
0.0
 10
180.539587
 20
173.816224
 30
0.0
 10
220.139512
 20
173.816224
 30
0.0
  0
LWPOLYLINE
  5
1a7
100
AcDbEntity
  8
Layer_1
 62
1
100
AcDbPolyline
 90
2
 70
0
 10
220.139512
 20
134.216299
 30
0.0
 10
220.139512
 20
173.816224
 30
0.0
  0
LWPOLYLINE
  5
1a8
100
AcDbEntity
  8
Layer_1
 62
1
100
AcDbPolyline
 90
2
 70
0
 10
220.139512
 20
134.216299
 30
0.0
 10
180.539587
 20
134.216299
 30
0.0
  0
LWPOLYLINE
  5
1a9
100
AcDbEntity
  8
Layer_1
 62
1
100
AcDbPolyline
 90
3
 70
0
 10
180.539587
 20
188.215909
 30
0.0
 10
180.539587
 20
227.815826
 30
0.0
 10
220.139512
 20
227.815826
 30
0.0
  0
LWPOLYLINE
  5
1aa
100
AcDbEntity
  8
Layer_1
 62
1
100
AcDbPolyline
 90
2
 70
0
 10
220.139512
 20
188.215909
 30
0.0
 10
220.139512
 20
227.815826
 30
0.0
  0
LWPOLYLINE
  5
1ab
100
AcDbEntity
  8
Layer_1
 62
1
100
AcDbPolyline
 90
2
 70
0
 10
220.139512
 20
188.215909
 30
0.0
 10
180.539587
 20
188.215909
 30
0.0
  0
LWPOLYLINE
  5
1ac
100
AcDbEntity
  8
Layer_1
 62
1
100
AcDbPolyline
 90
3
 70
0
 10
126.539700
 20
188.216194
 30
0.0
 10
126.539700
 20
227.816111
 30
0.0
 10
166.139618
 20
227.816111
 30
0.0
  0
LWPOLYLINE
  5
1ad
100
AcDbEntity
  8
Layer_1
 62
1
100
AcDbPolyline
 90
2
 70
0
 10
166.139617
 20
188.216194
 30
0.0
 10
166.139617
 20
227.816111
 30
0.0
  0
LWPOLYLINE
  5
1ae
100
AcDbEntity
  8
Layer_1
 62
1
100
AcDbPolyline
 90
2
 70
0
 10
166.139617
 20
188.216194
 30
0.0
 10
126.539700
 20
188.216194
 30
0.0
  0
LWPOLYLINE
  5
1af
100
AcDbEntity
  8
Layer_1
 62
1
100
AcDbPolyline
 90
3
 70
0
 10
180.539587
 20
242.215511
 30
0.0
 10
180.539587
 20
281.815436
 30
0.0
 10
220.139512
 20
281.815436
 30
0.0
  0
LWPOLYLINE
  5
1b0
100
AcDbEntity
  8
Layer_1
 62
1
100
AcDbPolyline
 90
2
 70
0
 10
220.139512
 20
242.215511
 30
0.0
 10
220.139512
 20
281.815436
 30
0.0
  0
LWPOLYLINE
  5
1b1
100
AcDbEntity
  8
Layer_1
 62
1
100
AcDbPolyline
 90
2
 70
0
 10
220.139512
 20
242.215511
 30
0.0
 10
180.539587
 20
242.215511
 30
0.0
  0
LWPOLYLINE
  5
1b2
100
AcDbEntity
  8
Layer_1
 62
1
100
AcDbPolyline
 90
3
 70
0
 10
234.539483
 20
296.215406
 30
0.0
 10
234.539483
 20
335.815324
 30
0.0
 10
274.139400
 20
335.815324
 30
0.0
  0
LWPOLYLINE
  5
1b3
100
AcDbEntity
  8
Layer_1
 62
1
100
AcDbPolyline
 90
2
 70
0
 10
274.139400
 20
296.215406
 30
0.0
 10
274.139400
 20
335.815324
 30
0.0
  0
LWPOLYLINE
  5
1b4
100
AcDbEntity
  8
Layer_1
 62
1
100
AcDbPolyline
 90
2
 70
0
 10
274.139400
 20
296.215406
 30
0.0
 10
234.539483
 20
296.215406
 30
0.0
  0
LWPOLYLINE
  5
1b5
100
AcDbEntity
  8
Layer_1
 62
1
100
AcDbPolyline
 90
3
 70
0
 10
234.539483
 20
107.217206
 30
0.0
 10
234.539483
 20
146.816839
 30
0.0
 10
238.211475
 20
146.816839
 30
0.0
  0
LWPOLYLINE
  5
1b6
100
AcDbEntity
  8
Layer_1
 62
1
100
AcDbPolyline
 90
4
 70
0
 10
238.211475
 20
156.176824
 30
0.0
 10
236.699475
 20
156.176824
 30
0.0
 10
236.699475
 20
165.536809
 30
0.0
 10
238.211475
 20
165.536809
 30
0.0
  0
LWPOLYLINE
  5
1b7
100
AcDbEntity
  8
Layer_1
 62
1
100
AcDbPolyline
 90
4
 70
0
 10
273.059400
 20
165.536809
 30
0.0
 10
276.299400
 20
165.536809
 30
0.0
 10
276.299400
 20
156.176824
 30
0.0
 10
273.059400
 20
156.176824
 30
0.0
  0
LWPOLYLINE
  5
1b8
100
AcDbEntity
  8
Layer_1
 62
1
100
AcDbPolyline
 90
4
 70
0
 10
270.827407
 20
146.816839
 30
0.0
 10
274.139400
 20
146.816839
 30
0.0
 10
274.139400
 20
107.217206
 30
0.0
 10
270.827407
 20
107.217206
 30
0.0
  0
LWPOLYLINE
  5
1b9
100
AcDbEntity
  8
Layer_1
 62
1
100
AcDbPolyline
 90
4
 70
0
 10
273.059400
 20
97.857221
 30
0.0
 10
276.299400
 20
97.857221
 30
0.0
 10
276.299400
 20
88.497214
 30
0.0
 10
273.059400
 20
88.497214
 30
0.0
  0
LWPOLYLINE
  5
1ba
100
AcDbEntity
  8
Layer_1
 62
1
100
AcDbPolyline
 90
4
 70
0
 10
238.211475
 20
88.497214
 30
0.0
 10
236.699475
 20
88.497214
 30
0.0
 10
236.699475
 20
97.857221
 30
0.0
 10
238.211475
 20
97.857221
 30
0.0
  0
LWPOLYLINE
  5
1bb
100
AcDbEntity
  8
Layer_1
 62
1
100
AcDbPolyline
 90
2
 70
0
 10
238.211475
 20
107.217206
 30
0.0
 10
234.539483
 20
107.217206
 30
0.0
  0
LWPOLYLINE
  5
1bc
100
AcDbEntity
  8
Layer_1
 62
1
100
AcDbPolyline
 90
3
 70
0
 10
234.539483
 20
215.216989
 30
0.0
 10
234.539483
 20
254.816629
 30
0.0
 10
238.211475
 20
254.816629
 30
0.0
  0
LWPOLYLINE
  5
1bd
100
AcDbEntity
  8
Layer_1
 62
1
100
AcDbPolyline
 90
4
 70
0
 10
238.211475
 20
264.176606
 30
0.0
 10
236.699475
 20
264.176606
 30
0.0
 10
236.699475
 20
273.536591
 30
0.0
 10
238.211475
 20
273.536591
 30
0.0
  0
LWPOLYLINE
  5
1be
100
AcDbEntity
  8
Layer_1
 62
1
100
AcDbPolyline
 90
4
 70
0
 10
273.059400
 20
273.536591
 30
0.0
 10
276.299393
 20
273.536591
 30
0.0
 10
276.299392
 20
264.176606
 30
0.0
 10
273.059400
 20
264.176606
 30
0.0
  0
LWPOLYLINE
  5
1bf
100
AcDbEntity
  8
Layer_1
 62
1
100
AcDbPolyline
 90
4
 70
0
 10
270.827407
 20
254.816629
 30
0.0
 10
274.139400
 20
254.816629
 30
0.0
 10
274.139400
 20
215.216989
 30
0.0
 10
270.827407
 20
215.216989
 30
0.0
  0
LWPOLYLINE
  5
1c0
100
AcDbEntity
  8
Layer_1
 62
1
100
AcDbPolyline
 90
4
 70
0
 10
273.059400
 20
205.857011
 30
0.0
 10
276.299393
 20
205.857011
 30
0.0
 10
276.299392
 20
196.497026
 30
0.0
 10
273.059400
 20
196.497026
 30
0.0
  0
LWPOLYLINE
  5
1c1
100
AcDbEntity
  8
Layer_1
 62
1
100
AcDbPolyline
 90
4
 70
0
 10
238.211475
 20
196.497026
 30
0.0
 10
236.699475
 20
196.497026
 30
0.0
 10
236.699475
 20
205.857011
 30
0.0
 10
238.211475
 20
205.857011
 30
0.0
  0
SPLINE
  5
1c2
100
AcDbEntity
  8
Layer_1
 62
7
100
AcDbSpline
 70
8
 71
3
 72
8
 73
4
 74
0
 40
0
 40
0
 40
0
 40
0
 40
1
 40
1
 40
1
 40
1
 10
119.490428
 20
358.050229
 30
0.0
 10
119.490428
 20
357.447343
 30
0.0
 10
119.168792
 20
356.890254
 30
0.0
 10
118.646678
 20
356.588811
 30
0.0
  0
SPLINE
  5
1c3
100
AcDbEntity
  8
Layer_1
 62
7
100
AcDbSpline
 70
8
 71
3
 72
8
 73
4
 74
0
 40
0
 40
0
 40
0
 40
0
 40
1
 40
1
 40
1
 40
1
 10
118.646678
 20
356.588811
 30
0.0
 10
118.124563
 20
356.287368
 30
0.0
 10
117.481292
 20
356.287368
 30
0.0
 10
116.959178
 20
356.588811
 30
0.0
  0
SPLINE
  5
1c4
100
AcDbEntity
  8
Layer_1
 62
7
100
AcDbSpline
 70
8
 71
3
 72
8
 73
4
 74
0
 40
0
 40
0
 40
0
 40
0
 40
1
 40
1
 40
1
 40
1
 10
116.959178
 20
356.588811
 30
0.0
 10
116.437063
 20
356.890254
 30
0.0
 10
116.115428
 20
357.447343
 30
0.0
 10
116.115428
 20
358.050229
 30
0.0
  0
SPLINE
  5
1c5
100
AcDbEntity
  8
Layer_1
 62
7
100
AcDbSpline
 70
8
 71
3
 72
8
 73
4
 74
0
 40
0
 40
0
 40
0
 40
0
 40
1
 40
1
 40
1
 40
1
 10
116.115428
 20
358.050229
 30
0.0
 10
116.115428
 20
358.653114
 30
0.0
 10
116.437063
 20
359.210204
 30
0.0
 10
116.959178
 20
359.511647
 30
0.0
  0
SPLINE
  5
1c6
100
AcDbEntity
  8
Layer_1
 62
7
100
AcDbSpline
 70
8
 71
3
 72
8
 73
4
 74
0
 40
0
 40
0
 40
0
 40
0
 40
1
 40
1
 40
1
 40
1
 10
116.959178
 20
359.511647
 30
0.0
 10
117.481292
 20
359.813089
 30
0.0
 10
118.124563
 20
359.813089
 30
0.0
 10
118.646678
 20
359.511647
 30
0.0
  0
SPLINE
  5
1c7
100
AcDbEntity
  8
Layer_1
 62
7
100
AcDbSpline
 70
8
 71
3
 72
8
 73
4
 74
0
 40
0
 40
0
 40
0
 40
0
 40
1
 40
1
 40
1
 40
1
 10
118.646678
 20
359.511647
 30
0.0
 10
119.168792
 20
359.210204
 30
0.0
 10
119.490428
 20
358.653114
 30
0.0
 10
119.490428
 20
358.050229
 30
0.0
  0
LWPOLYLINE
  5
1c8
100
AcDbEntity
  8
Layer_1
 62
1
100
AcDbPolyline
 90
2
 70
0
 10
238.211475
 20
215.216989
 30
0.0
 10
234.539483
 20
215.216989
 30
0.0
  0
SPLINE
  5
1c9
100
AcDbEntity
  8
Layer_1
 62
7
100
AcDbSpline
 70
8
 71
3
 72
8
 73
4
 74
0
 40
0
 40
0
 40
0
 40
0
 40
1
 40
1
 40
1
 40
1
 10
162.267652
 20
405.119636
 30
0.0
 10
162.267652
 20
404.215308
 30
0.0
 10
161.785199
 20
403.379674
 30
0.0
 10
161.002027
 20
402.927509
 30
0.0
  0
SPLINE
  5
1ca
100
AcDbEntity
  8
Layer_1
 62
7
100
AcDbSpline
 70
8
 71
3
 72
8
 73
4
 74
0
 40
0
 40
0
 40
0
 40
0
 40
1
 40
1
 40
1
 40
1
 10
161.002027
 20
402.927509
 30
0.0
 10
160.218856
 20
402.475345
 30
0.0
 10
159.253949
 20
402.475345
 30
0.0
 10
158.470777
 20
402.927509
 30
0.0
  0
SPLINE
  5
1cb
100
AcDbEntity
  8
Layer_1
 62
7
100
AcDbSpline
 70
8
 71
3
 72
8
 73
4
 74
0
 40
0
 40
0
 40
0
 40
0
 40
1
 40
1
 40
1
 40
1
 10
158.470777
 20
402.927509
 30
0.0
 10
157.687606
 20
403.379674
 30
0.0
 10
157.205152
 20
404.215308
 30
0.0
 10
157.205152
 20
405.119636
 30
0.0
  0
SPLINE
  5
1cc
100
AcDbEntity
  8
Layer_1
 62
7
100
AcDbSpline
 70
8
 71
3
 72
8
 73
4
 74
0
 40
0
 40
0
 40
0
 40
0
 40
1
 40
1
 40
1
 40
1
 10
157.205152
 20
405.119636
 30
0.0
 10
157.205152
 20
406.023965
 30
0.0
 10
157.687606
 20
406.859599
 30
0.0
 10
158.470777
 20
407.311763
 30
0.0
  0
SPLINE
  5
1cd
100
AcDbEntity
  8
Layer_1
 62
7
100
AcDbSpline
 70
8
 71
3
 72
8
 73
4
 74
0
 40
0
 40
0
 40
0
 40
0
 40
1
 40
1
 40
1
 40
1
 10
158.470777
 20
407.311763
 30
0.0
 10
159.253949
 20
407.763927
 30
0.0
 10
160.218856
 20
407.763927
 30
0.0
 10
161.002027
 20
407.311763
 30
0.0
  0
SPLINE
  5
1ce
100
AcDbEntity
  8
Layer_1
 62
7
100
AcDbSpline
 70
8
 71
3
 72
8
 73
4
 74
0
 40
0
 40
0
 40
0
 40
0
 40
1
 40
1
 40
1
 40
1
 10
161.002027
 20
407.311763
 30
0.0
 10
161.785199
 20
406.859599
 30
0.0
 10
162.267652
 20
406.023965
 30
0.0
 10
162.267652
 20
405.119636
 30
0.0
  0
LWPOLYLINE
  5
1cf
100
AcDbEntity
  8
Layer_1
 62
7
100
AcDbPolyline
 90
1
 70
1
 10
119.490428
 20
358.050229
 30
0.0
  0
SPLINE
  5
1d0
100
AcDbEntity
  8
Layer_1
 62
7
100
AcDbSpline
 70
8
 71
3
 72
8
 73
4
 74
0
 40
0
 40
0
 40
0
 40
0
 40
1
 40
1
 40
1
 40
1
 10
192.409950
 20
397.933894
 30
0.0
 10
192.409950
 20
397.150142
 30
0.0
 10
191.991824
 20
396.425926
 30
0.0
 10
191.313075
 20
396.034051
 30
0.0
  0
SPLINE
  5
1d1
100
AcDbEntity
  8
Layer_1
 62
7
100
AcDbSpline
 70
8
 71
3
 72
8
 73
4
 74
0
 40
0
 40
0
 40
0
 40
0
 40
1
 40
1
 40
1
 40
1
 10
191.313075
 20
396.034051
 30
0.0
 10
190.634326
 20
395.642175
 30
0.0
 10
189.798074
 20
395.642175
 30
0.0
 10
189.119325
 20
396.034051
 30
0.0
  0
SPLINE
  5
1d2
100
AcDbEntity
  8
Layer_1
 62
7
100
AcDbSpline
 70
8
 71
3
 72
8
 73
4
 74
0
 40
0
 40
0
 40
0
 40
0
 40
1
 40
1
 40
1
 40
1
 10
189.119325
 20
396.034051
 30
0.0
 10
188.440576
 20
396.425926
 30
0.0
 10
188.022450
 20
397.150142
 30
0.0
 10
188.022450
 20
397.933894
 30
0.0
  0
SPLINE
  5
1d3
100
AcDbEntity
  8
Layer_1
 62
7
100
AcDbSpline
 70
8
 71
3
 72
8
 73
4
 74
0
 40
0
 40
0
 40
0
 40
0
 40
1
 40
1
 40
1
 40
1
 10
188.022450
 20
397.933894
 30
0.0
 10
188.022450
 20
398.717645
 30
0.0
 10
188.440576
 20
399.441861
 30
0.0
 10
189.119325
 20
399.833737
 30
0.0
  0
SPLINE
  5
1d4
100
AcDbEntity
  8
Layer_1
 62
7
100
AcDbSpline
 70
8
 71
3
 72
8
 73
4
 74
0
 40
0
 40
0
 40
0
 40
0
 40
1
 40
1
 40
1
 40
1
 10
189.119325
 20
399.833737
 30
0.0
 10
189.798074
 20
400.225613
 30
0.0
 10
190.634326
 20
400.225613
 30
0.0
 10
191.313075
 20
399.833737
 30
0.0
  0
SPLINE
  5
1d5
100
AcDbEntity
  8
Layer_1
 62
7
100
AcDbSpline
 70
8
 71
3
 72
8
 73
4
 74
0
 40
0
 40
0
 40
0
 40
0
 40
1
 40
1
 40
1
 40
1
 10
191.313075
 20
399.833737
 30
0.0
 10
191.991824
 20
399.441861
 30
0.0
 10
192.409950
 20
398.717645
 30
0.0
 10
192.409950
 20
397.933894
 30
0.0
  0
LWPOLYLINE
  5
1d6
100
AcDbEntity
  8
Layer_1
 62
7
100
AcDbPolyline
 90
1
 70
1
 10
162.267652
 20
405.119636
 30
0.0
  0
SPLINE
  5
1d7
100
AcDbEntity
  8
Layer_1
 62
7
100
AcDbSpline
 70
8
 71
3
 72
8
 73
4
 74
0
 40
0
 40
0
 40
0
 40
0
 40
1
 40
1
 40
1
 40
1
 10
233.162168
 20
368.660089
 30
0.0
 10
233.162167
 20
367.541712
 30
0.0
 10
232.255544
 20
366.635089
 30
0.0
 10
231.137168
 20
366.635089
 30
0.0
  0
SPLINE
  5
1d8
100
AcDbEntity
  8
Layer_1
 62
7
100
AcDbSpline
 70
8
 71
3
 72
8
 73
4
 74
0
 40
0
 40
0
 40
0
 40
0
 40
1
 40
1
 40
1
 40
1
 10
231.137168
 20
366.635089
 30
0.0
 10
230.018791
 20
366.635089
 30
0.0
 10
229.112168
 20
367.541712
 30
0.0
 10
229.112167
 20
368.660089
 30
0.0
  0
SPLINE
  5
1d9
100
AcDbEntity
  8
Layer_1
 62
7
100
AcDbSpline
 70
8
 71
3
 72
8
 73
4
 74
0
 40
0
 40
0
 40
0
 40
0
 40
1
 40
1
 40
1
 40
1
 10
229.112167
 20
368.660089
 30
0.0
 10
229.112168
 20
369.778465
 30
0.0
 10
230.018791
 20
370.685089
 30
0.0
 10
231.137168
 20
370.685089
 30
0.0
  0
SPLINE
  5
1da
100
AcDbEntity
  8
Layer_1
 62
7
100
AcDbSpline
 70
8
 71
3
 72
8
 73
4
 74
0
 40
0
 40
0
 40
0
 40
0
 40
1
 40
1
 40
1
 40
1
 10
231.137168
 20
370.685089
 30
0.0
 10
232.255544
 20
370.685089
 30
0.0
 10
233.162167
 20
369.778465
 30
0.0
 10
233.162168
 20
368.660089
 30
0.0
  0
LWPOLYLINE
  5
1db
100
AcDbEntity
  8
Layer_1
 62
7
100
AcDbPolyline
 90
1
 70
1
 10
192.409950
 20
397.933894
 30
0.0
  0
LWPOLYLINE
  5
1dc
100
AcDbEntity
  8
Layer_1
 62
7
100
AcDbPolyline
 90
1
 70
1
 10
233.162168
 20
368.660089
 30
0.0
  0
LWPOLYLINE
  5
1dd
100
AcDbEntity
  8
Layer_1
 62
7
100
AcDbPolyline
 90
4
 70
0
 10
117.610762
 20
357.877271
 30
0.0
 10
159.547035
 20
405.016174
 30
0.0
 10
189.974490
 20
398.079341
 30
0.0
 10
230.807175
 20
368.755481
 30
0.0
  0
ENDSEC
  0
SECTION
  2
OBJECTS
  0
DICTIONARY
  5
C
330
0
100
AcDbDictionary
  3
ACAD_GROUP
350
D
  3
ACAD_MLINESTYLE
350
17
  0
DICTIONARY
  5
D
330
C
100
AcDbDictionary
  0
DICTIONARY
  5
1A
330
C
100
AcDbDictionary
  0
DICTIONARY
  5
17
330
C
100
AcDbDictionary
  3
STANDARD
350
18
  0
DICTIONARY
  5
19
330
C
100
AcDbDictionary
  0
ENDSEC
  0
EOF
